<?xml version="1.0" encoding="UTF-8"?>
<svg version="1.1" xmlns="http://www.w3.org/2000/svg" width="900" height="900">
<path d="M0 0 C3.82959054 0.01141275 7.65890109 0.00479724 11.48848152 -0.00714493 C14.49325578 -0.01445789 17.49796633 -0.01203331 20.50274277 -0.00688934 C21.91297313 -0.00557981 23.32320979 -0.00710267 24.73343277 -0.01184845 C34.75094309 -0.03819481 44.5946794 0.5540797 54.46826172 2.26074219 C54.79826172 2.59074219 55.12826172 2.92074219 55.46826172 3.26074219 C57.05671258 3.51135232 58.65423296 3.70494092 60.25341797 3.87402344 C61.25115234 3.98536621 62.24888672 4.09670898 63.27685547 4.21142578 C64.88753906 4.3905249 64.88753906 4.3905249 66.53076172 4.57324219 C76.47715769 5.75349702 85.85777779 7.43590329 95.46826172 10.26074219 C96.13792969 10.4542627 96.80759766 10.6477832 97.49755859 10.84716797 C115.2551153 16.0118658 131.5620142 23.17027442 146.46826172 34.26074219 C147.21978516 34.78152344 147.97130859 35.30230469 148.74560547 35.83886719 C149.31408203 36.30808594 149.88255859 36.77730469 150.46826172 37.26074219 C150.46826172 37.92074219 150.46826172 38.58074219 150.46826172 39.26074219 C151.03802734 39.49792969 151.60779297 39.73511719 152.19482422 39.97949219 C164.24819725 46.77245843 170.9265256 62.645953 174.46826172 75.26074219 C175.23809705 80.48262263 175.59630321 85.50234868 175.60870361 90.7900238 C175.6131603 91.8603428 175.6131603 91.8603428 175.61770701 92.9522844 C175.62631071 95.32000848 175.62789515 97.68768151 175.62939453 100.05541992 C175.63402877 101.76298631 175.63905423 103.47055167 175.6444397 105.17811584 C175.65751091 109.80260264 175.66399878 114.42707496 175.66845036 119.05157733 C175.67139078 121.94833298 175.67549746 124.84508477 175.67995453 127.74183846 C175.69361809 136.82676659 175.70328926 145.91168577 175.70715642 154.99662346 C175.71162878 165.44283388 175.72914327 175.88891292 175.75815701 186.33508343 C175.77986558 194.43565839 175.78986564 202.53619664 175.79119754 210.63680035 C175.79223939 215.4623754 175.79801343 220.28782677 175.81601715 225.1133709 C175.83265641 229.6615137 175.83457759 234.20944196 175.82587814 238.7576046 C175.82511606 240.41302318 175.82933888 242.06845406 175.8393364 243.72384262 C175.88673272 252.07148535 175.55669127 260.14363055 174.13348389 268.38319397 C173.95899369 269.39529455 173.95899369 269.39529455 173.78097844 270.4278416 C172.42100689 277.53198181 169.74732277 283.9895241 166.53076172 290.44824219 C166.04736328 291.43179687 165.56396484 292.41535156 165.06591797 293.42871094 C163.43312603 296.32302428 161.6109955 298.72614658 159.46826172 301.26074219 C158.93845703 301.9065625 158.40865234 302.55238281 157.86279297 303.21777344 C145.82567646 317.33537922 131.7967435 325.40375265 114.46826172 331.26074219 C113.56978516 331.60363281 112.67130859 331.94652344 111.74560547 332.29980469 C100.63947077 335.55619222 89.55257314 335.56085962 78.09521484 335.5637207 C76.26744212 335.57139573 74.43967289 335.57994469 72.61190796 335.58929443 C68.6997083 335.60746879 64.78755543 335.61957326 60.87532043 335.62683296 C54.68989957 335.63837841 48.50458245 335.66385665 42.31921387 335.69114685 C32.54250559 335.73267267 22.76579224 335.76514984 12.98903799 335.793621 C-4.54178004 335.84474822 -22.07255492 335.90675507 -39.60329866 335.97896141 C-45.75392888 336.00387482 -51.90454523 336.02330898 -58.05520725 336.03834355 C-61.87287087 336.04853642 -65.69051274 336.06268123 -69.50815964 336.07781982 C-71.28029748 336.08398171 -73.05244219 336.08843744 -74.82458878 336.0910778 C-77.23982974 336.09488261 -79.65497458 336.10469221 -82.07019043 336.11598206 C-82.77407001 336.11559592 -83.47794959 336.11520979 -84.20315886 336.11481196 C-87.47003371 336.13617741 -90.40009998 336.31072044 -93.53173828 337.26074219 C-94.96709009 337.40837837 -96.40509507 337.53134838 -97.84423828 337.63574219 C-113.33343128 339.15964223 -127.73279968 343.08006893 -140.53173828 352.26074219 C-141.24587891 352.76089844 -141.96001953 353.26105469 -142.69580078 353.77636719 C-162.99670086 368.70555144 -173.2715059 391.99468881 -177.53173828 416.26074219 C-178.32867709 422.72794566 -178.68730032 429.12961925 -178.72119141 435.6418457 C-178.73363136 436.95835869 -178.73363136 436.95835869 -178.74632263 438.3014679 C-178.76357491 440.18599825 -178.77878044 442.07054829 -178.792099 443.95511055 C-178.8133074 446.93447798 -178.84030609 449.91374477 -178.86877441 452.89305115 C-178.93822831 460.28010967 -178.99821643 467.66723859 -179.05780029 475.05438232 C-179.1086438 481.32259212 -179.16338374 487.59074271 -179.22361755 493.85886955 C-179.25024164 496.79990276 -179.27101247 499.7409415 -179.29162598 502.68202209 C-179.30821612 504.46941399 -179.3250868 506.25680331 -179.34228516 508.04418945 C-179.34856178 509.27758057 -179.34856178 509.27758057 -179.35496521 510.53588867 C-179.41787352 516.14687743 -179.41787352 516.14687743 -180.53173828 517.26074219 C-182.48998526 517.35999992 -184.45183725 517.38873633 -186.41259766 517.39013672 C-188.29960388 517.39486496 -188.29960388 517.39486496 -190.22473145 517.39968872 C-191.60831741 517.39789894 -192.99190306 517.39584799 -194.37548828 517.39355469 C-195.78413917 517.39422777 -197.19278994 517.39519784 -198.60144043 517.39645386 C-201.55722151 517.39793061 -204.51297242 517.39577702 -207.46875 517.39111328 C-211.26548412 517.38541599 -215.06214756 517.38869512 -218.85887909 517.39468575 C-221.76870256 517.39829198 -224.67850916 517.39715249 -227.58833313 517.39455795 C-228.98863229 517.39388886 -230.38893295 517.39471651 -231.78923035 517.39703751 C-233.74311292 517.39956501 -235.69700083 517.39503252 -237.65087891 517.39013672 C-238.76483032 517.38934113 -239.87878174 517.38854553 -241.02648926 517.38772583 C-243.53173828 517.26074219 -243.53173828 517.26074219 -244.53173828 516.26074219 C-245.39798828 516.27234375 -246.26423828 516.28394531 -247.15673828 516.29589844 C-266.98602728 516.08934334 -283.76817462 503.09532641 -297.53173828 490.26074219 C-298.12341797 489.71804688 -298.71509766 489.17535156 -299.32470703 488.61621094 C-300.53173828 487.26074219 -300.53173828 487.26074219 -300.53173828 485.26074219 C-301.19173828 485.26074219 -301.85173828 485.26074219 -302.53173828 485.26074219 C-304.08251953 483.35449219 -304.08251953 483.35449219 -305.84423828 480.76074219 C-306.41787109 479.92542969 -306.99150391 479.09011719 -307.58251953 478.22949219 C-311.90611905 471.64445083 -315.79290919 465.08103308 -319.15673828 457.94824219 C-319.55135254 457.11446045 -319.9459668 456.28067871 -320.35253906 455.42163086 C-322.7628721 450.21711192 -324.70186467 445.14346347 -325.98876953 439.53808594 C-326.52237328 437.30002131 -327.24136944 435.26999445 -328.09423828 433.13574219 C-329.73073624 428.92154796 -330.65032803 424.68723634 -331.53173828 420.26074219 C-331.76892578 419.1225 -332.00611328 417.98425781 -332.25048828 416.81152344 C-334.95210404 403.66816277 -337.58494033 390.32246803 -337.72460938 376.86791992 C-337.73278687 376.17527542 -337.74096436 375.48263092 -337.74938965 374.76899719 C-337.7740212 372.49411803 -337.79072798 370.21930166 -337.80517578 367.94433594 C-337.81049946 367.15189043 -337.81582314 366.35944492 -337.82130814 365.54298592 C-337.84798054 361.32513529 -337.86734968 357.10731324 -337.88183594 352.8894043 C-337.89499333 349.46952471 -337.92250609 346.05026791 -337.96386719 342.63061523 C-338.30192952 314.00903179 -336.36700873 286.72422272 -327.53173828 259.26074219 C-327.26619141 258.37257813 -327.00064453 257.48441406 -326.72705078 256.56933594 C-322.03129511 241.4004623 -313.64675186 228.09468131 -304.53173828 215.26074219 C-303.87173828 214.27074219 -303.21173828 213.28074219 -302.53173828 212.26074219 C-301.87173828 212.26074219 -301.21173828 212.26074219 -300.53173828 212.26074219 C-300.29197266 211.68839844 -300.05220703 211.11605469 -299.80517578 210.52636719 C-290.96007805 194.78969023 -268.09344998 185.87740286 -251.60986328 181.24121094 C-244.28195093 179.19253658 -236.81479837 179.11685166 -229.26855469 179.14048767 C-228.26124896 179.13963325 -227.25394323 179.13877882 -226.21611309 179.1378985 C-222.85515732 179.13625696 -219.49425192 179.14174332 -216.13330078 179.1472168 C-213.71835837 179.14749898 -211.30341587 179.14734032 -208.88847351 179.14677429 C-203.69660967 179.14654689 -198.50475713 179.14937552 -193.31289673 179.15501213 C-185.80643698 179.16315629 -178.2999833 179.16574534 -170.79351962 179.16700012 C-158.61331952 179.16918606 -146.43312614 179.17583373 -134.25292969 179.18530273 C-122.42447951 179.1944887 -110.59603115 179.20156374 -98.76757812 179.20581055 C-98.037866 179.20607327 -97.30815387 179.20633599 -96.55632925 179.20660668 C-92.89539688 179.20791176 -89.2344645 179.20917546 -85.5735321 179.21041858 C-55.22626254 179.22077693 -24.87900171 179.23865896 5.46826172 179.26074219 C5.46826172 172.33074219 5.46826172 165.40074219 5.46826172 158.26074219 C3.40334976 158.2629628 1.33843781 158.26518341 -0.78904724 158.26747131 C-20.19933312 158.28787078 -39.60961759 158.30277157 -59.01991177 158.31255436 C-69.00017659 158.31771776 -78.98043357 158.32476129 -88.96069336 158.33618164 C-97.65619969 158.34612714 -106.35170033 158.35259529 -115.04721218 158.35483068 C-119.65437559 158.35613802 -124.26152274 158.3592253 -128.86868095 158.36647224 C-133.1999242 158.37323035 -137.5311444 158.37535958 -141.86239243 158.37384987 C-143.45679283 158.37412629 -145.05119396 158.37613265 -146.64558983 158.37994766 C-148.81290399 158.38488166 -150.98012971 158.38374159 -153.14744568 158.3809967 C-154.9712131 158.38237939 -154.9712131 158.38237939 -156.8318243 158.38379002 C-159.53173828 158.26074219 -159.53173828 158.26074219 -160.53173828 157.26074219 C-160.64295323 154.44231813 -160.68913743 151.64817456 -160.69287109 148.82885742 C-160.697836 147.94423325 -160.7028009 147.05960907 -160.70791626 146.1481781 C-160.72258585 143.20522293 -160.72934994 140.26232176 -160.73486328 137.31933594 C-160.74061344 135.27726743 -160.74637119 133.23519895 -160.75213623 131.19313049 C-160.76266166 126.90145617 -160.76849335 122.60980066 -160.77197266 118.31811523 C-160.77744236 112.82927162 -160.8014312 107.34067797 -160.82994461 101.8519125 C-160.84861294 97.62845651 -160.85377896 93.40506 -160.85530853 89.18156624 C-160.85832915 87.15904444 -160.86633768 85.13652355 -160.87949371 83.11404228 C-160.89663196 80.27530129 -160.89465429 77.43716104 -160.88818359 74.59838867 C-160.89739838 73.76845398 -160.90661316 72.93851929 -160.91610718 72.08343506 C-160.83264965 60.33984383 -154.54824543 48.65898777 -146.53173828 40.26074219 C-129.58669467 24.00111607 -107.17900614 13.99301402 -84.40673828 9.12011719 C-80.6170465 8.33948121 -80.6170465 8.33948121 -77.33642578 7.24902344 C-71.84114755 5.82160517 -66.29367281 5.30633615 -60.65673828 4.69824219 C-58.38808243 4.45082167 -56.1198231 4.19972775 -53.85205078 3.94433594 C-52.35569092 3.78276001 -52.35569092 3.78276001 -50.82910156 3.61791992 C-48.57283362 3.49853144 -48.57283362 3.49853144 -47.53173828 2.26074219 C-31.91332667 -0.63862887 -15.8195858 -0.04768061 0 0 Z " fill="#3771A0" transform="translate(440.53173828125,100.7392578125)"/>
<path d="M0 0 C1.89952171 -0.01925285 1.89952171 -0.01925285 3.8374176 -0.03889465 C5.23137008 -0.04707277 6.62532705 -0.05451443 8.01928711 -0.0612793 C8.72438353 -0.06535482 9.42947994 -0.06943035 10.15594292 -0.07362938 C13.90376365 -0.09452688 17.65154762 -0.10880029 21.39941406 -0.11816406 C24.4709097 -0.12694828 27.54194168 -0.14763344 30.61328125 -0.1796875 C69.82525322 -0.57991669 69.82525322 -0.57991669 85.42163086 7.92700195 C86.0779248 8.27061768 86.73421875 8.6142334 87.41040039 8.96826172 C93.15706637 12.07355464 98.11338495 15.82990279 102.98413086 20.17700195 C103.80139648 20.84086914 104.61866211 21.50473633 105.46069336 22.1887207 C112.71603175 28.26478582 117.82167124 35.33902103 122.98413086 43.17700195 C123.53842773 43.99813477 124.09272461 44.81926758 124.66381836 45.6652832 C134.39654492 60.89568503 140.28348347 78.59892686 143.98413086 96.17700195 C144.31413086 96.50700195 144.64413086 96.83700195 144.98413086 97.17700195 C145.3433207 99.4513679 145.64462968 101.7349199 145.92163086 104.02075195 C146.00662842 104.70504272 146.09162598 105.3893335 146.17919922 106.09436035 C146.54404936 109.03276087 146.89884067 111.9723572 147.25463867 114.91186523 C147.51520409 117.0527655 147.78078479 119.1930021 148.04663086 121.33325195 C148.20260742 122.62038086 148.35858398 123.90750977 148.51928711 125.23364258 C148.66972206 128.0586412 148.66972206 128.0586412 149.98413086 129.17700195 C150.07922645 131.79388636 150.10969086 134.38429096 150.09765625 137.00146484 C150.09780228 137.8209108 150.0979483 138.64035675 150.09809875 139.4846344 C150.09739938 142.20633548 150.08960587 144.92796901 150.08178711 147.6496582 C150.07992302 149.53152936 150.07849907 151.41340101 150.07749939 153.29527283 C150.07367353 158.25848724 150.06384266 163.22167259 150.05279541 168.18487549 C150.04258275 173.24539802 150.03800208 178.30592522 150.03295898 183.36645508 C150.02222046 193.30331684 150.00514322 203.24015698 149.98413086 213.17700195 C149.32413086 213.17700195 148.66413086 213.17700195 147.98413086 213.17700195 C148.01249023 214.4505957 148.04084961 215.72418945 148.07006836 217.03637695 C148.06802379 222.25819576 147.4159121 227.27601402 146.60913086 232.42700195 C146.48280273 233.2984082 146.35647461 234.16981445 146.22631836 235.06762695 C145.56742277 239.38998205 144.75481842 243.15520772 142.98413086 247.17700195 C142.38164642 249.29665175 141.80006507 251.42230215 141.23413086 253.55200195 C136.84473531 269.05256116 130.39067256 285.70848295 119.98413086 298.17700195 C119.32413086 298.17700195 118.66413086 298.17700195 117.98413086 298.17700195 C117.78432617 298.8627832 117.58452148 299.54856445 117.37866211 300.25512695 C115.48306829 304.22684734 112.78792799 306.86338877 109.67163086 309.92700195 C109.04861084 310.54244873 108.42559082 311.15789551 107.78369141 311.79199219 C98.99338705 320.27799542 89.40093094 326.68350921 77.98413086 331.17700195 C77.07920898 331.54567383 76.17428711 331.9143457 75.24194336 332.29418945 C65.36182758 336.12868198 55.69436986 337.48265131 45.13240051 337.41751099 C43.58084504 337.42007426 43.58084504 337.42007426 41.99794501 337.42268932 C38.56333612 337.42595977 35.12892656 337.41502101 31.69433594 337.40405273 C29.21983851 337.40348809 26.74534074 337.40380622 24.27084351 337.40493774 C18.95951124 337.40539185 13.64823995 337.39975254 8.3369236 337.38846207 C0.65783526 337.37214903 -7.02122937 337.36699315 -14.70033316 337.36448608 C-27.16172652 337.36011805 -39.62309357 337.34683324 -52.08447266 337.32788086 C-64.18342966 337.30949891 -76.28237949 337.29535376 -88.38134766 337.28686523 C-89.12819359 337.28633979 -89.87503952 337.28581434 -90.64451715 337.28527297 C-94.39154201 337.28266273 -98.13856692 337.28013536 -101.88559186 337.27764916 C-132.92903735 337.25694445 -163.97244779 337.22118959 -195.01586914 337.17700195 C-195.01586914 344.10700195 -195.01586914 351.03700195 -195.01586914 358.17700195 C-192.93842911 358.17478134 -190.86098907 358.17256073 -188.72059631 358.17027283 C-169.19258124 358.14987339 -149.66456756 358.13497259 -130.13654423 358.12518978 C-120.09574527 358.12002637 -110.05495411 358.11298283 -100.01416016 358.1015625 C-91.26591612 358.09161702 -82.51767773 358.08514885 -73.76942819 358.08291346 C-69.13431915 358.08160612 -64.49922627 358.07851881 -59.86412239 358.0712719 C-55.50661435 358.06451383 -51.14912922 358.06238455 -46.79161644 358.06389427 C-45.1875407 358.06361785 -43.58346423 358.06161146 -41.97939301 358.05779648 C-39.79894184 358.05286255 -37.61857857 358.05400253 -35.43812561 358.05674744 C-34.21490632 358.05582564 -32.99168703 358.05490385 -31.73140049 358.05395412 C-29.01586914 358.17700195 -29.01586914 358.17700195 -28.01586914 359.17700195 C-27.88866694 361.96347573 -27.82660559 364.72568012 -27.80712891 367.51367188 C-27.79734512 368.38865829 -27.78756134 369.26364471 -27.77748108 370.16514587 C-27.74742247 373.0792386 -27.72609874 375.99328448 -27.70727539 378.9074707 C-27.70070356 379.90407526 -27.69413174 380.90067982 -27.68736076 381.92748451 C-27.6547026 387.21498824 -27.63028194 392.50247146 -27.61083984 397.79003906 C-27.59311131 402.1500434 -27.55843737 406.50939063 -27.50830078 410.86914062 C-27.44773486 416.14182272 -27.41731189 421.41390107 -27.40766716 426.68691444 C-27.3991626 428.68778813 -27.38046981 430.68864792 -27.35092354 432.68932152 C-27.12724602 448.71406338 -29.27100817 460.62653073 -40.01586914 473.17700195 C-40.75836914 474.16700195 -41.50086914 475.15700195 -42.26586914 476.17700195 C-53.75525782 489.62976718 -71.02416544 497.36966832 -87.45336914 502.80200195 C-88.76917969 503.2505957 -88.76917969 503.2505957 -90.11157227 503.70825195 C-95.30288844 505.43741549 -100.41736468 506.73089249 -105.79663086 507.72338867 C-108.18743146 508.1651638 -108.18743146 508.1651638 -111.09008789 509.20825195 C-114.95235012 510.48707843 -118.81252054 511.07437869 -122.82836914 511.67700195 C-124.06828613 511.86818604 -124.06828613 511.86818604 -125.33325195 512.06323242 C-132.29856405 513.11612844 -139.28031121 513.97356829 -146.28149414 514.74731445 C-148.61957267 515.01634022 -150.95371674 515.32614476 -153.27801514 515.69577026 C-157.08302214 516.1856476 -160.72065161 516.30403115 -164.5559082 516.30639648 C-165.27387573 516.3081488 -165.99184326 516.30990112 -166.73156738 516.31170654 C-169.08156826 516.31607317 -171.43149264 516.31320675 -173.78149414 516.30981445 C-175.42340102 516.31048869 -177.06530781 516.31145971 -178.70721436 516.31271362 C-182.13660641 516.3141833 -185.56597232 516.31205844 -188.99536133 516.30737305 C-193.39258005 516.30165813 -197.78973797 516.30497049 -202.1869545 516.31094551 C-205.5720872 516.31455547 -208.95720543 516.31341084 -212.34233856 516.31081772 C-213.96427162 516.31015059 -215.58620599 516.31096941 -217.20813751 516.31329727 C-219.46993001 516.31583287 -221.73162313 516.31197117 -223.9934082 516.30639648 C-225.92364838 516.30520309 -225.92364838 516.30520309 -227.8928833 516.3039856 C-231.01586914 516.17700195 -231.01586914 516.17700195 -234.01586914 515.17700195 C-236.61967519 514.87984443 -239.22002817 514.61405415 -241.82836914 514.36450195 C-249.30686629 513.59498781 -256.68214598 512.45866459 -264.07836914 511.11450195 C-265.04814697 510.94007568 -266.0179248 510.76564941 -267.01708984 510.5859375 C-273.8854748 509.3073963 -273.8854748 509.3073963 -275.01586914 508.17700195 C-277.13426496 507.70856795 -279.26106633 507.27798862 -281.39086914 506.86450195 C-287.01858455 505.69659357 -292.23939144 504.16235429 -297.59399414 502.0949707 C-300.69368294 500.92008866 -303.81475183 500.03063324 -307.01586914 499.17700195 C-307.01586914 498.51700195 -307.01586914 497.85700195 -307.01586914 497.17700195 C-307.71711914 497.07387695 -308.41836914 496.97075195 -309.14086914 496.86450195 C-316.039497 495.21483007 -322.01479617 490.82900199 -328.01586914 487.17700195 C-328.94270508 486.66137695 -329.86954102 486.14575195 -330.82446289 485.61450195 C-331.54762695 485.14012695 -332.27079102 484.66575195 -333.01586914 484.17700195 C-333.01586914 483.51700195 -333.01586914 482.85700195 -333.01586914 482.17700195 C-333.69649414 481.99137695 -334.37711914 481.80575195 -335.07836914 481.61450195 C-339.23898699 479.57845492 -341.91127013 476.56321282 -345.01586914 473.17700195 C-345.55727539 472.59305664 -346.09868164 472.00911133 -346.65649414 471.4074707 C-350.04456455 467.61728083 -352.66020636 463.68123628 -355.01586914 459.17700195 C-355.5018457 458.35973633 -355.98782227 457.5424707 -356.48852539 456.70043945 C-359.76872174 450.8492784 -361.63906678 445.37661572 -362.68193054 438.80882263 C-362.87218403 437.62890484 -362.87218403 437.62890484 -363.06628102 436.42515033 C-364.27142721 428.3888196 -364.39381881 420.48902058 -364.29638672 412.38037109 C-364.28892256 410.79280648 -364.28280071 409.2052351 -364.27789307 407.61766052 C-364.26078795 403.36534044 -364.2245544 399.11339249 -364.18398499 394.86123967 C-364.14402291 390.37259901 -364.1205249 385.8838662 -364.09465027 381.39512634 C-364.04876337 373.86145476 -363.9907089 366.32795519 -363.92480469 358.79443359 C-363.84916424 350.13533334 -363.79104833 341.47625546 -363.74277192 332.8169623 C-363.69571583 324.42344442 -363.63784488 316.03003601 -363.5746212 307.63662529 C-363.54801143 304.093706 -363.52472703 300.55078936 -363.50422096 297.00782967 C-363.31260034 265.2755441 -363.31260034 265.2755441 -362.15917969 253.92871094 C-362.08950139 253.24032922 -362.01982309 252.5519475 -361.94803333 251.84270573 C-359.66685717 233.43639106 -349.3830549 214.90373195 -335.01586914 203.17700195 C-334.35586914 203.17700195 -333.69586914 203.17700195 -333.01586914 203.17700195 C-333.01586914 202.51700195 -333.01586914 201.85700195 -333.01586914 201.17700195 C-322.79044258 193.11996107 -310.20390266 187.83551932 -297.76586914 184.30200195 C-297.05809326 184.09881348 -296.35031738 183.895625 -295.62109375 183.6862793 C-283.98541934 180.59218377 -271.92398652 181.0356692 -259.98193359 181.05102539 C-258.17690995 181.04962802 -256.37188665 181.04772702 -254.56686401 181.04536438 C-250.69616241 181.04088926 -246.82547135 181.03901178 -242.95476723 181.03890228 C-236.81016532 181.03775339 -230.66562234 181.02485086 -224.52104187 181.00933838 C-223.47962188 181.00676553 -222.43820188 181.00419267 -221.36522371 181.00154185 C-219.23627785 180.99627566 -217.10733204 180.99099018 -214.97838628 180.98568583 C-200.69131073 180.95073164 -186.40430949 180.9240146 -172.1171875 180.92651367 C-162.45662968 180.92811255 -152.79627486 180.91182859 -143.13578194 180.87580705 C-138.04002039 180.85751458 -132.944597 180.84785572 -127.8488102 180.8602829 C-89.65854179 181.46865605 -89.65854179 181.46865605 -54.01586914 169.17700195 C-52.72422852 168.50217773 -52.72422852 168.50217773 -51.40649414 167.8137207 C-44.74960695 164.14416332 -35.5081095 158.16148268 -32.01586914 151.17700195 C-31.35586914 151.17700195 -30.69586914 151.17700195 -30.01586914 151.17700195 C-29.74774414 150.41387695 -29.47961914 149.65075195 -29.20336914 148.86450195 C-28.01586914 146.17700195 -28.01586914 146.17700195 -26.64868164 144.88793945 C-20.66560067 138.61858667 -17.52941433 128.39681658 -14.76586914 120.30200195 C-14.532146 119.63289795 -14.29842285 118.96379395 -14.05761719 118.27441406 C-9.17561529 103.3244841 -8.55219812 88.62524135 -8.50415039 73.05200195 C-8.48726475 70.96735606 -8.46910944 68.88272011 -8.44975281 66.7980957 C-8.40266811 61.36660877 -8.37259196 55.93516215 -8.34631348 50.50354004 C-8.31629607 44.93888389 -8.26983968 39.37436615 -8.22485352 33.80981445 C-8.13929414 22.93228332 -8.07174062 12.05472332 -8.01586914 1.17700195 C-5.27619878 -0.19283323 -3.06685215 0.02703406 0 0 Z " fill="#FED242" transform="translate(647.015869140625,282.822998046875)"/>
<path d="M0 0 C7.48606443 6.19585257 11.21467476 12.78813741 12.46484375 22.4375 C12.9319446 31.24405997 10.23116617 37.74208999 4.625 44.45703125 C-1.63790741 51.37848472 -8.51289339 54.36312516 -17.8125 54.89453125 C-26.12361073 54.54211666 -33.65208632 51.22799436 -39.65234375 45.5234375 C-45.35587206 38.68179017 -47.77750344 30.9522653 -47.6484375 22.17578125 C-46.80156556 13.75545456 -42.53057051 7.07461491 -36.375 1.45703125 C-25.19080723 -7.19530686 -11.97654935 -7.78081742 0 0 Z " fill="#FEFEFC" transform="translate(571.375,683.54296875)"/>
<path d="M0 0 C2.45690356 1.70659169 4.68188245 3.52119235 6.921875 5.5 C8.3140625 6.36625 8.3140625 6.36625 9.734375 7.25 C15.13634247 12.8063094 17.23691833 19.61393178 17.421875 27.25 C17.0014992 36.390479 13.2406599 43.01647955 6.921875 49.5 C-1.46917083 55.7703759 -9.17891754 57.51304771 -19.484375 56.19140625 C-24.37209346 55.27088594 -27.39030888 53.98293745 -31.078125 50.5 C-31.903125 49.943125 -32.728125 49.38625 -33.578125 48.8125 C-38.56642409 44.19832334 -41.57324775 38.33759872 -42.01953125 31.53515625 C-42.04853516 30.52775391 -42.04853516 30.52775391 -42.078125 29.5 C-42.12839844 28.75621094 -42.17867188 28.01242188 -42.23046875 27.24609375 C-42.55959159 19.46562984 -39.79167165 13.65379701 -35.078125 7.5 C-25.79155131 -2.22301841 -12.56843955 -6.12472181 0 0 Z " fill="#FDFDFC" transform="translate(365.078125,157.5)"/>
<path d="M0 0 C1.89952171 -0.01925285 1.89952171 -0.01925285 3.8374176 -0.03889465 C5.23137008 -0.04707277 6.62532705 -0.05451443 8.01928711 -0.0612793 C8.72438353 -0.06535482 9.42947994 -0.06943035 10.15594292 -0.07362938 C13.90376365 -0.09452688 17.65154762 -0.10880029 21.39941406 -0.11816406 C24.4709097 -0.12694828 27.54194168 -0.14763344 30.61328125 -0.1796875 C51.44659541 -0.39240138 70.3846588 -0.57413797 88.98413086 10.17700195 C85.34616833 11.51064019 83.41037868 10.82800025 79.92163086 9.30200195 C78.63579102 8.74899414 78.63579102 8.74899414 77.32397461 8.18481445 C76.55182617 7.85223633 75.77967773 7.5196582 74.98413086 7.17700195 C73.99413086 6.84700195 73.00413086 6.51700195 71.98413086 6.17700195 C71.98413086 5.51700195 71.98413086 4.85700195 71.98413086 4.17700195 C46.24413086 3.84700195 20.50413086 3.51700195 -6.01586914 3.17700195 C-5.98106445 9.53723633 -5.94625977 15.8974707 -5.91040039 22.45043945 C-5.89504506 26.51555298 -5.88060132 30.58063001 -5.86938477 34.64575195 C-5.8515541 41.077144 -5.83061968 47.50840613 -5.78955078 53.93969727 C-5.75659828 59.13336217 -5.73894167 64.32688746 -5.73123741 69.52064896 C-5.72575753 71.4874656 -5.71506003 73.45427589 -5.69867897 75.42103195 C-5.46497943 104.68313619 -10.90626922 133.53935211 -31.97021484 155.43188477 C-39.68136504 163.20796817 -47.70703015 170.13906322 -58.01586914 174.17700195 C-59.00586914 174.17700195 -59.99586914 174.17700195 -61.01586914 174.17700195 C-61.01586914 174.83700195 -61.01586914 175.49700195 -61.01586914 176.17700195 C-62.2669043 176.44963867 -62.2669043 176.44963867 -63.54321289 176.7277832 C-71.188984 178.42557097 -71.188984 178.42557097 -78.64086914 180.80200195 C-89.27000129 184.46717094 -101.48574335 183.33422054 -112.5949707 183.35058594 C-114.45713451 183.35690184 -116.31929684 183.36366876 -118.18145752 183.37084961 C-122.17169125 183.38544254 -126.16191945 183.39719769 -130.15216827 183.40679741 C-136.46432685 183.42232824 -142.77643652 183.44627396 -149.08856201 183.47169495 C-167.03077095 183.54270041 -184.97300667 183.60276134 -202.9152832 183.65380859 C-212.83967688 183.68211815 -222.76402061 183.71749327 -232.68836188 183.76046234 C-238.96110127 183.78719834 -245.23378428 183.80512484 -251.50656939 183.81649959 C-255.4074387 183.82563233 -259.30823929 183.84299597 -263.2090683 183.86267853 C-265.01541564 183.87014329 -266.8217806 183.87423444 -268.62814331 183.87467384 C-271.09722243 183.87575937 -273.56595368 183.88903342 -276.03497314 183.90525818 C-277.1020536 183.9013329 -277.1020536 183.9013329 -278.19069123 183.89732832 C-282.77748836 183.94428509 -286.66186535 184.77334078 -291.01586914 186.17700195 C-293.41152812 186.78185962 -295.80736647 187.38600718 -298.20336914 187.98950195 C-306.78685005 190.22690725 -314.77040302 193.45427273 -322.64086914 197.55200195 C-324.31149414 198.35637695 -324.31149414 198.35637695 -326.01586914 199.17700195 C-326.67586914 198.84700195 -327.33586914 198.51700195 -328.01586914 198.17700195 C-320.42634858 192.36375216 -312.41017916 189.20833861 -303.45336914 186.05200195 C-302.76460693 185.79813721 -302.07584473 185.54427246 -301.36621094 185.28271484 C-287.92687097 180.70198207 -273.44140738 180.88799282 -259.41430664 180.9375 C-257.60854514 180.93638387 -255.80278402 180.93432102 -253.99702454 180.93139648 C-250.14003457 180.92671268 -246.28310573 180.927754 -242.42611694 180.93317223 C-236.30210082 180.94086176 -230.17819906 180.93003647 -224.05419922 180.91596985 C-206.65030442 180.87845903 -189.24646285 180.85999592 -171.8425293 180.87158203 C-162.205752 180.87783882 -152.56916175 180.8660167 -142.93243027 180.83513671 C-137.85349366 180.81968703 -132.77492541 180.81325917 -127.69598389 180.82971764 C-89.58466096 181.45397955 -89.58466096 181.45397955 -54.01586914 169.17700195 C-52.72422852 168.50217773 -52.72422852 168.50217773 -51.40649414 167.8137207 C-44.74960695 164.14416332 -35.5081095 158.16148268 -32.01586914 151.17700195 C-31.35586914 151.17700195 -30.69586914 151.17700195 -30.01586914 151.17700195 C-29.74774414 150.41387695 -29.47961914 149.65075195 -29.20336914 148.86450195 C-28.01586914 146.17700195 -28.01586914 146.17700195 -26.64868164 144.88793945 C-20.66560067 138.61858667 -17.52941433 128.39681658 -14.76586914 120.30200195 C-14.532146 119.63289795 -14.29842285 118.96379395 -14.05761719 118.27441406 C-9.17561529 103.3244841 -8.55219812 88.62524135 -8.50415039 73.05200195 C-8.48726475 70.96735606 -8.46910944 68.88272011 -8.44975281 66.7980957 C-8.40266811 61.36660877 -8.37259196 55.93516215 -8.34631348 50.50354004 C-8.31629607 44.93888389 -8.26983968 39.37436615 -8.22485352 33.80981445 C-8.13929414 22.93228332 -8.07174062 12.05472332 -8.01586914 1.17700195 C-5.27619878 -0.19283323 -3.06685215 0.02703406 0 0 Z " fill="#F6DA78" transform="translate(647.015869140625,282.822998046875)"/>
<path d="M0 0 C83.16 0 166.32 0 252 0 C252 0.33 252 0.66 252 1 C169.17 1 86.34 1 1 1 C1 7.93 1 14.86 1 22 C3.07744003 21.99777939 5.15488007 21.99555878 7.29527283 21.99327087 C26.82328791 21.97287144 46.35130158 21.95797063 65.87932491 21.94818783 C75.92012387 21.94302442 85.96091503 21.93598088 96.00170898 21.92456055 C104.74995302 21.91461507 113.49819141 21.9081469 122.24644095 21.90591151 C126.88154999 21.90460417 131.51664287 21.90151685 136.15174675 21.89426994 C140.50925479 21.88751187 144.86673992 21.8853826 149.2242527 21.88689232 C150.82832844 21.88661589 152.43240491 21.88460951 154.03647614 21.88079453 C156.2169273 21.87586059 158.39729057 21.87700058 160.57774353 21.87974548 C161.80096282 21.87882369 163.02418211 21.8779019 164.28446865 21.87695217 C167 22 167 22 168 23 C168.1272022 25.78647378 168.18926355 28.54867816 168.20874023 31.33666992 C168.21852402 32.21165634 168.2283078 33.08664276 168.23838806 33.98814392 C168.26844667 36.90223664 168.2897704 39.81628253 168.30859375 42.73046875 C168.31516558 43.72707331 168.3217374 44.72367786 168.32850838 45.75048256 C168.36116654 51.03798629 168.3855872 56.3254695 168.4050293 61.61303711 C168.42275783 65.97304145 168.45743177 70.33238867 168.50756836 74.69213867 C168.56813428 79.96482076 168.59855726 85.23689912 168.60820198 90.50991249 C168.61670654 92.51078618 168.63539933 94.51164596 168.6649456 96.51231956 C168.88862312 112.53706143 166.74486097 124.44952878 156 137 C155.2575 137.99 154.515 138.98 153.75 140 C150.14074228 144.28377473 145.57827805 147.80736008 141 151 C140.34 151 139.68 151 139 151 C139 150.34 139 149.68 139 149 C140.70218367 147.50618709 142.46322891 146.07902984 144.25 144.6875 C147.2812041 142.32588729 149.82991642 140.21260447 152.234375 137.20703125 C152.81703125 136.47871094 153.3996875 135.75039063 154 135 C154.66 135 155.32 135 156 135 C156 134.34 156 133.68 156 133 C156.66 133 157.32 133 158 133 C158.33 131.35 158.66 129.7 159 128 C159.66 128 160.32 128 161 128 C161.13343307 127.42192596 161.26686615 126.84385193 161.40434265 126.2482605 C162 124 162 124 162.73591614 122.14065552 C166.17809268 112.98800228 165.48079343 103.18279442 165.51171875 93.5546875 C165.52858509 91.5735667 165.54673793 89.59245647 165.56611633 87.61135864 C165.61341021 82.42638453 165.64335254 77.24145331 165.66955566 72.05633545 C165.69946567 66.75361668 165.74595992 61.45104538 165.79101562 56.1484375 C165.87681399 45.76570248 165.94426316 35.38293691 166 25 C164.72583395 25.00138269 164.72583395 25.00138269 163.42592716 25.00279331 C142.78789604 25.0248466 122.14986693 25.0414106 101.51182652 25.05181217 C91.53156169 25.05697557 81.55130471 25.0640191 71.57104492 25.07543945 C62.8755386 25.08538496 54.18003795 25.09185311 45.4845261 25.09408849 C40.87736269 25.09539583 36.27021554 25.09848312 31.66305733 25.10573006 C27.33181408 25.11248817 23.00059388 25.11461739 18.66934586 25.11310768 C17.07494545 25.1133841 15.48054432 25.11539047 13.88614845 25.11920547 C11.71883429 25.12413947 9.55160857 25.1229994 7.3842926 25.12025452 C5.56052518 25.12163721 5.56052518 25.12163721 3.69991398 25.12304783 C1 25 1 25 0 24 C0 16.08 0 8.16 0 0 Z " fill="#F0D678" transform="translate(451,619)"/>
<path d="M0 0 C55.11 0 110.22 0 167 0 C167 7.92 167 15.84 167 24 C162.34527336 24.00879936 162.34527336 24.00879936 157.59651184 24.01777649 C129.1037175 24.07301672 100.61099869 24.14301226 72.11828171 24.22898628 C68.37971744 24.2402537 64.64115279 24.25139227 60.90258789 24.26245117 C59.7862224 24.2657567 59.7862224 24.2657567 58.64730408 24.269129 C46.61542499 24.30444817 34.58354597 24.32934262 22.55163435 24.35034702 C10.19484466 24.37215203 -2.16187808 24.40524684 -14.51861078 24.44870156 C-22.13606915 24.47513755 -29.7534442 24.49289211 -37.37094615 24.49934604 C-43.2237711 24.50525099 -49.07647331 24.52690562 -54.92923927 24.55427551 C-57.32163809 24.56303703 -59.71406163 24.56678225 -62.10647583 24.56500816 C-78.38127026 24.5567534 -92.03595665 25.81406486 -107.08203125 32.3359375 C-108.16871094 32.80257812 -109.25539062 33.26921875 -110.375 33.75 C-111.39335937 34.19859375 -112.41171875 34.6471875 -113.4609375 35.109375 C-114.71777344 35.55023438 -114.71777344 35.55023438 -116 36 C-116.66 35.67 -117.32 35.34 -118 35 C-105.00745259 24.47786654 -85.94087719 21.82899183 -69.73681641 21.87974548 C-68.72951068 21.87889106 -67.72220495 21.87803663 -66.68437481 21.87715632 C-63.32341904 21.87551478 -59.96251364 21.88100113 -56.6015625 21.88647461 C-54.18662009 21.88675679 -51.77167759 21.88659814 -49.35673523 21.8860321 C-44.16487139 21.8858047 -38.97301885 21.88863333 -33.78115845 21.89426994 C-26.2746987 21.90241411 -18.76824502 21.90500315 -11.26178133 21.90625793 C0.91841876 21.90844387 13.09861214 21.91509154 25.27880859 21.92456055 C37.10725877 21.93374651 48.93570713 21.94082155 60.76416016 21.94506836 C61.49387228 21.94533108 62.22358441 21.94559381 62.97540903 21.94586449 C66.6363414 21.94716958 70.29727378 21.94843327 73.95820618 21.94967639 C104.30547574 21.96003475 134.65273657 21.97791677 165 22 C165 15.07 165 8.14 165 1 C110.55 1 56.1 1 0 1 C0 0.67 0 0.34 0 0 Z " fill="#9DAB97" transform="translate(281,258)"/>
<path d="M0 0 C-13.34979114 6.88792415 -26.55325569 12.02660545 -41 16 C-42.01835938 16.28875 -43.03671875 16.5775 -44.0859375 16.875 C-57.51276742 20.48557611 -71.47251365 22.04652501 -85.265625 23.5703125 C-87.60370352 23.83933827 -89.9378476 24.14914281 -92.262146 24.51876831 C-96.067153 25.00864564 -99.70478247 25.1270292 -103.54003906 25.12939453 C-104.25800659 25.13114685 -104.97597412 25.13289917 -105.71569824 25.13470459 C-108.06569912 25.13907122 -110.41562349 25.13620479 -112.765625 25.1328125 C-114.40753188 25.13348673 -116.04943867 25.13445776 -117.69134521 25.13571167 C-121.12073727 25.13718135 -124.55010318 25.13505648 -127.97949219 25.13037109 C-132.37671091 25.12465618 -136.77386883 25.12796853 -141.17108536 25.13394356 C-144.55621806 25.13755352 -147.94133629 25.13640889 -151.32646942 25.13381577 C-152.94840248 25.13314864 -154.57033685 25.13396746 -156.19226837 25.13629532 C-158.45406086 25.13883092 -160.71575399 25.13496922 -162.97753906 25.12939453 C-164.90777924 25.12820114 -164.90777924 25.12820114 -166.87701416 25.12698364 C-170 25 -170 25 -173 24 C-175.60380605 23.70284247 -178.20415903 23.4370522 -180.8125 23.1875 C-188.29099715 22.41798586 -195.66627684 21.28166264 -203.0625 19.9375 C-204.51716675 19.6758606 -204.51716675 19.6758606 -206.0012207 19.40893555 C-212.86960565 18.13039435 -212.86960565 18.13039435 -214 17 C-216.11839582 16.531566 -218.24519719 16.10098666 -220.375 15.6875 C-226.00271541 14.51959161 -231.2235223 12.98535234 -236.578125 10.91796875 C-239.6778138 9.74308671 -242.79888269 8.85363128 -246 8 C-246 7.34 -246 6.68 -246 6 C-247.1446875 5.814375 -247.1446875 5.814375 -248.3125 5.625 C-251 5 -251 5 -254 3 C-249.47607363 3.31562277 -245.87464923 4.38510829 -241.6875 6.125 C-233.56577312 9.3966497 -225.14009315 11.48315033 -216.67456055 13.67626953 C-215.57023682 13.96356934 -214.46591309 14.25086914 -213.328125 14.546875 C-212.3268457 14.80307617 -211.32556641 15.05927734 -210.29394531 15.32324219 C-208 16 -208 16 -207 17 C-205.1080051 17.27630151 -203.20717679 17.4924872 -201.3046875 17.68359375 C-199.51611328 17.86825195 -199.51611328 17.86825195 -197.69140625 18.05664062 C-195.80228516 18.24516602 -195.80228516 18.24516602 -193.875 18.4375 C-191.43468709 18.68414125 -188.99458213 18.93284846 -186.5546875 19.18359375 C-184.92249268 19.34686157 -184.92249268 19.34686157 -183.25732422 19.51342773 C-180.73716691 19.77805469 -178.24368203 20.11292698 -175.73652649 20.48727417 C-166.55997206 21.83269206 -157.64830704 22.29695305 -148.37109375 22.265625 C-146.92391393 22.26697856 -145.47673457 22.26892477 -144.02955627 22.27142334 C-141.02364697 22.27434126 -138.017858 22.27018553 -135.01196289 22.26074219 C-131.20114548 22.24933926 -127.3906097 22.25593383 -123.57980251 22.26788712 C-120.59998026 22.27518805 -117.62022245 22.27278067 -114.64039803 22.26763153 C-113.23688789 22.2663182 -111.83337147 22.26785916 -110.4298687 22.27259064 C-102.11510718 22.29448969 -94.13229513 21.78618564 -85.91864014 20.46516418 C-82.53919058 19.92655757 -79.22656758 19.64087285 -75.8125 19.4375 C-72.56786754 19.24146179 -70.09147091 19.0304903 -67 18 C-63.66305671 17.57117035 -60.32632645 17.18832199 -56.98046875 16.83789062 C-52.9906336 16.3809542 -49.67629703 15.58293985 -46 14 C-44.08213538 13.80496292 -42.16424698 13.61014667 -40.24609375 13.41796875 C-37.59430773 12.92450596 -35.35235956 11.99922553 -32.875 10.9375 C-29.0759603 9.31352778 -26.19305918 8.55862535 -22 9 C-22 8.34 -22 7.68 -22 7 C-19.09191094 5.62683502 -16.17239387 4.27991866 -13.25 2.9375 C-12.425 2.54755859 -11.6 2.15761719 -10.75 1.75585938 C-9.95078125 1.39169922 -9.1515625 1.02753906 -8.328125 0.65234375 C-7.5949707 0.31195068 -6.86181641 -0.02844238 -6.10644531 -0.37915039 C-3.66590281 -1.09847116 -2.37210464 -0.82742385 0 0 Z " fill="#F1D77C" transform="translate(586,774)"/>
<path d="M0 0 C-8.26559843 5.51039896 -22.85908218 3.15926508 -32.57910156 3.17358398 C-34.44126537 3.17989988 -36.3034277 3.18666681 -38.16558838 3.19384766 C-42.15582211 3.20844059 -46.14605031 3.22019574 -50.13629913 3.22979546 C-56.44845771 3.24532629 -62.76056738 3.269272 -69.07269287 3.29469299 C-87.01490181 3.36569846 -104.95713753 3.42575939 -122.89941406 3.47680664 C-132.82380774 3.5051162 -142.74815147 3.54049132 -152.67249274 3.58346039 C-158.94523213 3.61019639 -165.21791514 3.62812289 -171.49070024 3.63949764 C-175.39156956 3.64863038 -179.29237015 3.66599402 -183.19319916 3.68567657 C-184.9995465 3.69314134 -186.80591146 3.69723249 -188.61227417 3.69767189 C-191.08135329 3.69875741 -193.55008454 3.71203147 -196.019104 3.72825623 C-196.73049097 3.72563937 -197.44187794 3.72302252 -198.17482209 3.72032636 C-202.76161922 3.76728314 -206.64599621 4.59633882 -211 6 C-213.39565897 6.60485767 -215.79149733 7.20900522 -218.1875 7.8125 C-226.77098091 10.0499053 -234.75453388 13.27727078 -242.625 17.375 C-243.73875 17.91125 -244.8525 18.4475 -246 19 C-246.66 18.67 -247.32 18.34 -248 18 C-240.41047943 12.18675021 -232.39431001 9.03133666 -223.4375 5.875 C-222.74873779 5.62113525 -222.05997559 5.36727051 -221.3503418 5.10571289 C-207.82035765 0.49408449 -193.18875967 0.70055635 -179.06518555 0.69702148 C-177.22534826 0.68933947 -175.38551443 0.68078924 -173.54568481 0.67144775 C-169.61991192 0.65332783 -165.69418512 0.64118935 -161.7683773 0.63390923 C-155.56190819 0.62233115 -149.35554143 0.59684167 -143.14912415 0.56959534 C-133.34302482 0.52813813 -123.53692044 0.49562595 -113.73077565 0.46712118 C-96.13404599 0.41590172 -78.53735862 0.35400502 -60.94070274 0.28178078 C-54.76804852 0.25686398 -48.59540815 0.23743233 -42.42272222 0.22239864 C-38.59636825 0.21221552 -34.7700361 0.19807167 -30.94369888 0.18292236 C-29.16629994 0.17675442 -27.38889412 0.1723021 -25.61148643 0.16966438 C-23.19173055 0.16586702 -20.7720714 0.15606498 -18.3523407 0.14476013 C-17.29040836 0.14533933 -17.29040836 0.14533933 -16.20702285 0.14593023 C-10.32154663 0.10738113 -5.9411569 -0.87656413 0 0 Z " fill="#FDDD75" transform="translate(567,463)"/>
<path d="M0 0 C0.33 0 0.66 0 1 0 C1.20458874 4.39865797 0.80056043 8.33215122 0.01332092 12.66717529 C-1.29380364 20.99258523 -1.31934895 29.23723442 -1.33813477 37.63769531 C-1.34905524 39.37555916 -1.36072958 41.1134184 -1.37309265 42.85127258 C-1.40335556 47.53536948 -1.42055562 52.21941771 -1.43330884 56.90359211 C-1.44143842 59.83974482 -1.45162001 62.77588413 -1.46232414 65.7120285 C-1.49497049 74.92721462 -1.51889806 84.14236733 -1.531138 93.35760331 C-1.54538799 103.94323381 -1.58927665 114.5281971 -1.65863949 125.11360669 C-1.71061762 133.33318379 -1.73532611 141.5525722 -1.73996013 149.77231097 C-1.74333804 154.66511471 -1.75787858 159.55724062 -1.80124092 164.44986725 C-1.84136319 169.05662544 -1.847238 173.662243 -1.82834053 178.26912498 C-1.8270879 179.94554079 -1.83748479 181.62201913 -1.86135483 183.29826546 C-1.99703093 193.41506943 -0.76331252 201.3249066 3.63984913 210.52868676 C5.39254579 214.1972939 6.28102817 216.11397053 5 220 C4.61908203 219.11248047 4.61908203 219.11248047 4.23046875 218.20703125 C3.71419922 217.02173828 3.71419922 217.02173828 3.1875 215.8125 C2.85105469 215.03519531 2.51460938 214.25789062 2.16796875 213.45703125 C1.07124933 210.98335952 1.07124933 210.98335952 -0.46862507 208.86285496 C-2.3937395 205.26391698 -3.05182004 201.72272092 -3.66996765 197.73728943 C-3.79652133 196.94306405 -3.923075 196.14883866 -4.05346364 195.33054584 C-5.24864871 187.26640291 -5.37826515 179.33827402 -5.28051758 171.20336914 C-5.27305342 169.61580453 -5.26693157 168.02823314 -5.26202393 166.44065857 C-5.24491881 162.18833849 -5.20868526 157.93639054 -5.16811585 153.68423772 C-5.12815377 149.19559705 -5.10465576 144.70686425 -5.07878113 140.21812439 C-5.03289423 132.68445281 -4.97483976 125.15095324 -4.90893555 117.61743164 C-4.8332951 108.95833139 -4.77517919 100.2992535 -4.72690278 91.63996035 C-4.67984669 83.24644246 -4.62197574 74.85303406 -4.55875206 66.45962334 C-4.53214229 62.91670405 -4.50885789 59.37378741 -4.48835182 55.83082771 C-4.20681809 9.17306947 -4.20681809 9.17306947 0 0 Z " fill="#F7DB7C" transform="translate(288,524)"/>
<path d="M0 0 C3.82959054 0.01141275 7.65890109 0.00479724 11.48848152 -0.00714493 C14.49325578 -0.01445789 17.49796633 -0.01203331 20.50274277 -0.00688934 C21.91297313 -0.00557981 23.32320979 -0.00710267 24.73343277 -0.01184845 C34.80584959 -0.03833921 44.52226422 0.81442276 54.46826172 2.26074219 C54.46826172 3.25074219 54.46826172 4.24074219 54.46826172 5.26074219 C51.49826172 5.26074219 48.52826172 5.26074219 45.46826172 5.26074219 C45.46826172 4.60074219 45.46826172 3.94074219 45.46826172 3.26074219 C44.52724609 3.34453125 43.58623047 3.42832031 42.61669922 3.51464844 C41.37146484 3.61648437 40.12623047 3.71832031 38.84326172 3.82324219 C37.61349609 3.92765625 36.38373047 4.03207031 35.11669922 4.13964844 C31.46826172 4.26074219 31.46826172 4.26074219 28.87597656 3.78100586 C24.33709721 3.0880447 19.88172858 3.07904114 15.29638672 3.05761719 C14.30896988 3.05078415 13.32155304 3.04395111 12.30421448 3.03691101 C9.10886222 3.01982892 5.91365702 3.0135793 2.71826172 3.01074219 C1.6343515 3.0087381 0.55044128 3.00673401 -0.5663147 3.00466919 C-15.85789184 2.99772073 -30.70314848 3.56670257 -45.83666992 5.90454102 C-48.90161268 6.30962766 -51.95508415 6.52995509 -55.03955078 6.73730469 C-60.87684656 7.15213133 -66.49102211 8.02646261 -72.21923828 9.19824219 C-73.07839844 9.36775391 -73.93755859 9.53726563 -74.82275391 9.71191406 C-76.53634176 10.05102137 -78.24909794 10.39436222 -79.9609375 10.7421875 C-81.73163454 11.09935374 -83.50424549 11.44711779 -85.27832031 11.78710938 C-86.16245605 11.95758789 -87.0465918 12.12806641 -87.95751953 12.30371094 C-89.14921753 12.53030396 -89.14921753 12.53030396 -90.36499023 12.76147461 C-93.62361661 13.51233556 -96.50490523 14.85542684 -99.53173828 16.26074219 C-102.02446216 17.28739947 -104.52763619 18.28376359 -107.03564453 19.27246094 C-108.63318613 19.90497741 -110.22506687 20.55210669 -111.80908203 21.21777344 C-115.52630094 22.73373422 -117.7015605 23.50090988 -121.53173828 22.26074219 C-118.55502813 20.98410159 -115.57493722 19.71553861 -112.59423828 18.44824219 C-111.34803711 17.91360352 -111.34803711 17.91360352 -110.07666016 17.36816406 C-102.49687542 14.15339155 -94.96534539 11.44793976 -86.90673828 9.69824219 C-83.69215136 8.99579542 -80.57260181 8.27384741 -77.43798828 7.26855469 C-71.98464366 5.6769267 -66.285153 5.30541706 -60.65673828 4.69824219 C-58.38808243 4.45082167 -56.1198231 4.19972775 -53.85205078 3.94433594 C-52.35569092 3.78276001 -52.35569092 3.78276001 -50.82910156 3.61791992 C-48.57283362 3.49853144 -48.57283362 3.49853144 -47.53173828 2.26074219 C-31.91332667 -0.63862887 -15.8195858 -0.04768061 0 0 Z " fill="#B2B794" transform="translate(440.53173828125,100.7392578125)"/>
<path d="M0 0 C10.31132292 12.39280115 15.21132472 31.24249372 18.421875 46.5859375 C18.76234976 48.93667625 18.76234976 48.93667625 20 50 C20.35918984 52.27436595 20.66049882 54.55791795 20.9375 56.84375 C21.02249756 57.52804077 21.10749512 58.21233154 21.19506836 58.9173584 C21.5599185 61.85575891 21.91470981 64.79535525 22.27050781 67.73486328 C22.53107323 69.87576354 22.79665393 72.01600015 23.0625 74.15625 C23.21847656 75.44337891 23.37445312 76.73050781 23.53515625 78.05664062 C23.6855912 80.88163924 23.6855912 80.88163924 25 82 C25.09509559 84.61688441 25.12556 87.207289 25.11352539 89.82446289 C25.11367142 90.64390884 25.11381744 91.4633548 25.1139679 92.30763245 C25.11326852 95.02933353 25.10547501 97.75096705 25.09765625 100.47265625 C25.09579216 102.35452741 25.09436821 104.23639906 25.09336853 106.11827087 C25.08954267 111.08148529 25.07971181 116.04467064 25.06866455 121.00787354 C25.0584519 126.06839606 25.05387122 131.12892327 25.04882812 136.18945312 C25.0380896 146.12631488 25.02101236 156.06315503 25 166 C24.34 166 23.68 166 23 166 C23.02835938 167.27359375 23.05671875 168.5471875 23.0859375 169.859375 C23.08389294 175.08119381 22.43178124 180.09901207 21.625 185.25 C21.49867188 186.12140625 21.37234375 186.9928125 21.2421875 187.890625 C20.58297002 192.21509169 19.76762995 195.97596363 18 200 C17.26742683 202.43032486 16.56025817 204.86841252 15.875 207.3125 C15.52179687 208.56675781 15.16859375 209.82101562 14.8046875 211.11328125 C14.53914062 212.06589844 14.27359375 213.01851562 14 214 C13.67 214 13.34 214 13 214 C12.67745032 208.94672167 13.42816777 205.38192777 15.140625 200.6484375 C16.90171918 195.22106545 17.86388217 189.58430797 19 184 C19.19722656 183.16726563 19.39445313 182.33453125 19.59765625 181.4765625 C21.27421027 174.19907616 21.51399872 166.84271215 21.85644531 159.41162109 C21.95591413 157.74061257 22.08771214 156.07133464 22.24511719 154.40478516 C23.21187128 144.01991952 23.15101794 133.6474762 23.13037109 123.22558594 C23.12501185 120.00711354 23.13034263 116.78878066 23.13671875 113.5703125 C23.490812 96.14776383 23.490812 96.14776383 21 79 C20.82940543 77.6163812 20.68746524 76.22900851 20.5703125 74.83984375 C19.83612159 66.75713688 19.06827167 59.06003261 16.6484375 51.2734375 C16.03336242 49.11696944 15.74747284 47.16598229 15.5625 44.9375 C14.95899944 40.71299607 13.69227282 37.39833601 12.03515625 33.49609375 C11.09322425 31.22479356 10.30388706 28.96778311 9.5625 26.625 C7.31558103 19.71234765 4.5295152 12.95354659 1.1875 6.5 C0 4 0 4 0 0 Z " fill="#F6D872" transform="translate(772,330)"/>
<path d="M0 0 C0.99 0.33 1.98 0.66 3 1 C2.41992188 1.61746094 1.83984375 2.23492187 1.2421875 2.87109375 C-17.7780233 23.49201536 -26.04456261 49.54015478 -26.18945312 77.38110352 C-26.19774643 78.25877884 -26.20603973 79.13645416 -26.21458435 80.04072571 C-26.23183663 81.92525606 -26.24704216 83.8098061 -26.26036072 85.69436836 C-26.28156912 88.67373579 -26.3085678 91.65300258 -26.33703613 94.63230896 C-26.40649003 102.01936748 -26.46647814 109.40649641 -26.52606201 116.79364014 C-26.57690551 123.06184993 -26.63164546 129.33000053 -26.69187927 135.59812737 C-26.71850335 138.53916057 -26.73927419 141.48019932 -26.7598877 144.42127991 C-26.77647784 146.2086718 -26.79334852 147.99606112 -26.81054688 149.78344727 C-26.81473129 150.60570801 -26.81891571 151.42796875 -26.82322693 152.27514648 C-26.88613524 157.88613524 -26.88613524 157.88613524 -28 159 C-29.96369153 159.0940067 -31.93079199 159.11743381 -33.89672852 159.11352539 C-35.15796036 159.11344986 -36.4191922 159.11337433 -37.71864319 159.11329651 C-39.10539794 159.1081891 -40.49215229 159.10297309 -41.87890625 159.09765625 C-43.28995209 159.09579201 -44.70099857 159.09436814 -46.11204529 159.09336853 C-49.83240535 159.08954379 -53.5527266 159.0797139 -57.27307129 159.06866455 C-61.06680781 159.05844948 -64.86055058 159.05387071 -68.65429688 159.04882812 C-76.10288231 159.03809158 -83.55143572 159.0210157 -91 159 C-91.33 158.34 -91.66 157.68 -92 157 C-70.88 157 -49.76 157 -28 157 C-28.02320313 149.93464844 -28.04640625 142.86929688 -28.0703125 135.58984375 C-28.08053326 131.11002236 -28.09016134 126.63021538 -28.09765625 122.15039062 C-28.10960518 115.04204314 -28.12373116 107.93374726 -28.15087891 100.82543945 C-28.17263208 95.09367368 -28.1845739 89.36196325 -28.18975449 83.63015938 C-28.19344578 81.44493298 -28.20065394 79.25970956 -28.21146011 77.07450676 C-28.22600775 74.01046104 -28.22797655 70.94664314 -28.22705078 67.88256836 C-28.23424133 66.98201218 -28.24143188 66.08145599 -28.24884033 65.15361023 C-28.23209763 60.02224854 -27.63325105 55.866307 -26 51 C-25.3736594 48.54200789 -24.74868696 46.08366678 -24.125 43.625 C-22.60064667 37.77792878 -20.63601739 32.4284087 -18 27 C-17.566875 25.88625 -17.13375 24.7725 -16.6875 23.625 C-12.50999794 14.65110669 -6.79399995 7.14693502 0 0 Z " fill="#95A696" transform="translate(288,459)"/>
<path d="M0 0 C0.804375 0.3403125 0.804375 0.3403125 1.625 0.6875 C-1.33443362 2.12515768 -4.34060229 3.41628624 -7.375 4.6875 C-8.19275249 5.04349148 -9.01050497 5.39948296 -9.85303783 5.76626205 C-21.39712903 10.05548715 -33.39600908 9.21722446 -45.53442383 9.14160156 C-48.07818077 9.14047195 -50.62193901 9.14110916 -53.16569519 9.14337158 C-58.62057544 9.14427896 -64.07520928 9.13302168 -69.53003883 9.11042023 C-77.41652672 9.07776494 -85.30292233 9.06747947 -93.18947049 9.06246826 C-105.98810143 9.05373669 -118.78662977 9.0271795 -131.58520508 8.98925781 C-144.01000458 8.95248213 -156.43477612 8.92419766 -168.85961914 8.90722656 C-169.62684859 8.90617567 -170.39407805 8.90512477 -171.18455688 8.90404204 C-175.03392884 8.89882148 -178.883301 8.89376675 -182.73267329 8.88879442 C-214.61352646 8.84739904 -246.49424156 8.77590022 -278.375 8.6875 C-278.375 16.2775 -278.375 23.8675 -278.375 31.6875 C-278.705 31.6875 -279.035 31.6875 -279.375 31.6875 C-279.375 23.7675 -279.375 15.8475 -279.375 7.6875 C-274.68055161 7.68203156 -274.68055161 7.68203156 -269.89126587 7.67645264 C-241.1281347 7.64110407 -212.36511082 7.58598823 -183.60206155 7.50957905 C-179.82487735 7.49956274 -176.04769273 7.48971842 -172.27050781 7.47998047 C-171.51860386 7.4780391 -170.76669991 7.47609772 -169.992011 7.47409752 C-157.85033907 7.44315762 -145.70868599 7.42611932 -133.56698211 7.41430578 C-121.08924482 7.40185254 -108.61160577 7.37425769 -96.13393056 7.33288693 C-88.44736304 7.30787028 -80.76095867 7.294374 -73.07434987 7.29607043 C-67.15964971 7.29610397 -61.24513772 7.27497295 -55.33050346 7.24633217 C-52.91924257 7.23787464 -50.5079469 7.23605472 -48.09667778 7.24169731 C-33.69409749 7.27088854 -12.35015912 -1.62502094 0 0 Z " fill="#FEDC6E" transform="translate(729.375,610.3125)"/>
<path d="M0 0 C0.33 0 0.66 0 1 0 C0.62195886 4.82002453 -0.26104566 8.87900301 -1.875 13.4375 C-4.45384142 21.34282116 -5.18152775 29.43847088 -6.04833984 37.68139648 C-6.2158374 39.2699646 -6.2158374 39.2699646 -6.38671875 40.890625 C-6.48170654 41.85000977 -6.57669434 42.80939453 -6.67456055 43.79785156 C-7 46 -7 46 -8 47 C-9.05733486 54.20892255 -9.14879443 61.49392732 -9.1328125 68.765625 C-9.13376923 69.76092224 -9.13472595 70.75621948 -9.13571167 71.78167725 C-9.13638772 73.87919173 -9.13457387 75.97670837 -9.13037109 78.07421875 C-9.1250836 81.20057184 -9.13030016 84.3267767 -9.13671875 87.453125 C-9.14064961 97.95182091 -8.98528471 108.43139243 -8.5546875 118.921875 C-8.51594513 119.90641663 -8.47720276 120.89095825 -8.43728638 121.90533447 C-8.39594574 122.80894714 -8.3546051 123.71255981 -8.31201172 124.64355469 C-8.2761496 125.43912781 -8.24028748 126.23470093 -8.20333862 127.05438232 C-8.10706961 129.079044 -8.10706961 129.079044 -7 131 C-6.82384329 133.00563967 -6.65229842 135.01180073 -6.50512695 137.01977539 C-5.70297131 147.60843319 -3.64634885 157.59593776 -0.94458008 167.85961914 C-0.68056396 168.87660889 -0.41654785 169.89359863 -0.14453125 170.94140625 C0.09934326 171.84576416 0.34321777 172.75012207 0.59448242 173.68188477 C1 176 1 176 0 179 C-2.25361847 173.36595382 -3.81683792 167.94190956 -5 162 C-5.2371875 160.86175781 -5.474375 159.72351563 -5.71875 158.55078125 C-8.42036576 145.40742058 -11.05320204 132.06172584 -11.19287109 118.60717773 C-11.20104858 117.91453323 -11.20922607 117.22188873 -11.21765137 116.508255 C-11.24228292 114.23337584 -11.2589897 111.95855947 -11.2734375 109.68359375 C-11.27876118 108.89114824 -11.28408485 108.09870274 -11.28956985 107.28224373 C-11.31624226 103.0643931 -11.3356114 98.84657105 -11.35009766 94.62866211 C-11.36325505 91.20878252 -11.39076781 87.78952572 -11.43212891 84.36987305 C-11.7669492 56.02086548 -10.34173324 28.09102639 -1 1 C-0.67 0.67 -0.34 0.34 0 0 Z " fill="#8AA098" transform="translate(114,359)"/>
<path d="M0 0 C-12.18263579 8.12175719 -28.32344656 7.29947011 -42.37304688 7.30297852 C-44.2008196 7.31065354 -46.02858883 7.3192025 -47.85635376 7.32855225 C-51.76855342 7.3467266 -55.68070629 7.35883107 -59.59294128 7.36609077 C-65.77836215 7.37763622 -71.96367927 7.40311447 -78.14904785 7.43040466 C-87.92575613 7.47193048 -97.70246948 7.50440766 -107.47922373 7.53287882 C-125.01004176 7.58400603 -142.54081663 7.64601289 -160.07156038 7.71821922 C-166.2221906 7.74313263 -172.37280695 7.76256679 -178.52346897 7.77760136 C-182.34113259 7.78779424 -186.15877446 7.80193905 -189.97642136 7.81707764 C-191.7485592 7.82323952 -193.5207039 7.82769526 -195.29285049 7.83033562 C-197.70809146 7.83414042 -200.1232363 7.84395002 -202.53845215 7.85523987 C-203.24233173 7.85485374 -203.94621131 7.8544676 -204.67142057 7.85406977 C-207.93811423 7.87543403 -210.86927375 8.04701618 -214 9 C-215.51749168 9.19475829 -217.03903116 9.35944933 -218.5625 9.5 C-219.42746094 9.58121094 -220.29242188 9.66242188 -221.18359375 9.74609375 C-222.57771484 9.87177734 -222.57771484 9.87177734 -224 10 C-225.02222656 10.09410156 -226.04445313 10.18820312 -227.09765625 10.28515625 C-229.73151089 10.52645132 -232.36561223 10.76460794 -235 11 C-232.59253975 8.59253975 -231.30382074 8.50894574 -228 7.9375 C-224.38219325 7.32706347 -224.38219325 7.32706347 -221 6 C-218.61793722 5.89474618 -216.26448132 5.84951939 -213.88180542 5.84851074 C-212.76911527 5.84216213 -212.76911527 5.84216213 -211.63394654 5.83568525 C-209.1347059 5.82261337 -206.6354972 5.81662365 -204.13623047 5.81054688 C-202.34910892 5.8026072 -200.56198932 5.79421946 -198.77487183 5.78541565 C-194.91709836 5.76732488 -191.05932928 5.75232036 -187.20153427 5.73963928 C-181.08925409 5.71942053 -174.97702157 5.6917609 -168.86477661 5.66296387 C-155.8682069 5.60280047 -142.87160793 5.55111493 -129.875 5.5 C-115.89202658 5.44485633 -101.90906784 5.38804717 -87.926139 5.32245111 C-81.8641562 5.29428745 -75.80217824 5.27062314 -69.74016356 5.25052643 C-65.94376117 5.23700982 -62.14738336 5.21960433 -58.35100174 5.20121574 C-56.60648989 5.19354674 -54.86197026 5.18744021 -53.1174469 5.18312263 C-30.07908959 5.46160158 -30.07908959 5.46160158 -7.6875 0.875 C-4.95589378 -0.01436017 -2.85093177 -0.16770187 0 0 Z " fill="#7D9897" transform="translate(561,429)"/>
<path d="M0 0 C3.53275248 5.65240397 3.12532069 13.08142884 3.14044189 19.52928162 C3.14489858 20.59960061 3.14489858 20.59960061 3.1494453 21.69154221 C3.15804899 24.05926629 3.15963343 26.42693932 3.16113281 28.79467773 C3.16576705 30.50224412 3.17079252 32.20980948 3.17617798 33.91737366 C3.18924919 38.54186046 3.19573707 43.16633277 3.20018864 47.79083514 C3.20312906 50.6875908 3.20723574 53.58434258 3.21169281 56.48109627 C3.22535638 65.5660244 3.23502754 74.65094358 3.2388947 83.73588127 C3.24336707 94.18209169 3.26088156 104.62817073 3.2898953 115.07434124 C3.31160386 123.1749162 3.32160392 131.27545446 3.32293582 139.37605816 C3.32397768 144.20163322 3.32975171 149.02708458 3.34775543 153.85262871 C3.3643947 158.40077151 3.36631587 162.94869977 3.35761642 167.49686241 C3.35685434 169.15228099 3.36107716 170.80771187 3.37107468 172.46310043 C3.41935231 180.96596153 3.04231328 189.16549152 1.60272217 197.55995178 C1.47801646 198.29333785 1.35331076 199.02672391 1.2248261 199.78233379 C0.89169568 201.5374994 0.45509165 203.27243704 0 205 C-0.66 205.33 -1.32 205.66 -2 206 C-1.52582403 199.99793054 -0.87186974 194.06569135 0.02388 188.11114502 C1.15548802 180.00595537 1.27622474 171.95554366 1.24291992 163.78417969 C1.24399626 162.22347942 1.24594014 160.66277955 1.24867249 159.1020813 C1.25346625 154.9122414 1.24593536 150.72251015 1.23571944 146.53268337 C1.2268509 142.12296638 1.22869806 137.71325192 1.2290802 133.30352783 C1.22814768 125.90676078 1.21951798 118.51003509 1.20581055 111.11328125 C1.19006621 102.58636969 1.18481352 94.05950327 1.1855461 85.53257823 C1.18622363 76.41151525 1.17927415 67.29046943 1.1700995 58.16941166 C1.16797798 55.55824022 1.16725968 52.94707158 1.16686058 50.33589935 C1.16584948 46.22192129 1.15969083 42.10798047 1.14969444 37.99401474 C1.14679656 36.49249627 1.14553851 34.99097351 1.14612198 33.48945236 C1.14791136 26.07580541 1.03729897 18.73794895 0.21974659 11.36095047 C-0.13338582 7.56690694 -0.0624203 3.8076381 0 0 Z " fill="#7D9897" transform="translate(613,172)"/>
<path d="M0 0 C8.31167171 -0.09355941 16.62311566 -0.16419299 24.93518734 -0.20724869 C28.79674599 -0.22793549 32.65793888 -0.25589636 36.51928711 -0.30175781 C76.38105223 -0.76239755 76.38105223 -0.76239755 95 10 C91.36203747 11.33363823 89.42624782 10.65099829 85.9375 9.125 C85.08027344 8.75632812 84.22304688 8.38765625 83.33984375 8.0078125 C82.56769531 7.67523438 81.79554688 7.34265625 81 7 C80.01 6.67 79.02 6.34 78 6 C78 5.34 78 4.68 78 4 C76.01432292 4.03255208 74.02864583 4.06510417 72.04296875 4.09765625 C70 4 70 4 67 3 C64.80784547 2.88211998 62.61237425 2.82308063 60.41723633 2.79467773 C59.75355545 2.78477814 59.08987457 2.77487854 58.40608215 2.76467896 C56.21476801 2.7331191 54.02343219 2.70832845 51.83203125 2.68359375 C50.31173645 2.66301945 48.79144731 2.64202285 47.27116394 2.62062073 C43.27141913 2.56544916 39.27162311 2.51601825 35.27178955 2.46777344 C31.18961026 2.4175225 27.10750526 2.36185519 23.02539062 2.30664062 C15.0169899 2.19911918 7.00852701 2.09766089 -1 2 C-0.67 1.34 -0.34 0.68 0 0 Z " fill="#DFCE81" transform="translate(641,283)"/>
<path d="M0 0 C1.5631897 0.00785522 1.5631897 0.00785522 3.15795898 0.01586914 C4.28266602 0.0190918 5.40737305 0.02231445 6.56616211 0.02563477 C7.75016602 0.03401367 8.93416992 0.04239258 10.15405273 0.05102539 C11.34192383 0.05553711 12.52979492 0.06004883 13.75366211 0.06469727 C16.69967499 0.07652864 19.64558954 0.09301252 22.59155273 0.11352539 C22.59155273 0.44352539 22.59155273 0.77352539 22.59155273 1.11352539 C18.52955363 1.59699925 14.46687015 2.07448107 10.40405273 2.55102539 C8.70732422 2.75308594 8.70732422 2.75308594 6.97631836 2.95922852 C1.28550783 3.62396707 -4.3869172 4.20305617 -10.10375977 4.59008789 C-15.8730918 5.01050914 -21.4333463 5.89266824 -27.09594727 7.05102539 C-27.95510742 7.22053711 -28.81426758 7.39004883 -29.69946289 7.56469727 C-31.41305075 7.90380457 -33.12580692 8.24714542 -34.83764648 8.5949707 C-36.60834353 8.95213694 -38.38095448 9.29990099 -40.1550293 9.63989258 C-41.03916504 9.81037109 -41.92330078 9.98084961 -42.83422852 10.15649414 C-44.02592651 10.38308716 -44.02592651 10.38308716 -45.24169922 10.61425781 C-48.50032559 11.36511876 -51.38161421 12.70821004 -54.40844727 14.11352539 C-56.90117115 15.14018267 -59.40434517 16.13654679 -61.91235352 17.12524414 C-63.50989512 17.75776061 -65.10177585 18.40488989 -66.68579102 19.07055664 C-70.40300992 20.58651742 -72.57826948 21.35369309 -76.40844727 20.11352539 C-73.43173711 18.8368848 -70.45164621 17.56832181 -67.47094727 16.30102539 C-66.22474609 15.76638672 -66.22474609 15.76638672 -64.95336914 15.22094727 C-57.3735844 12.00617475 -49.84205438 9.30072296 -41.78344727 7.55102539 C-38.56886035 6.84857862 -35.44931079 6.12663061 -32.31469727 5.12133789 C-26.86135264 3.52970991 -21.16186198 3.15820027 -15.53344727 2.55102539 C-13.26479141 2.30360487 -10.99653209 2.05251095 -8.72875977 1.79711914 C-7.2323999 1.63554321 -7.2323999 1.63554321 -5.70581055 1.47070312 C-3.0151532 1.05237882 -2.75607027 0.12991107 0 0 Z " fill="#99A996" transform="translate(395.408447265625,102.886474609375)"/>
<path d="M0 0 C0 3 0 3 -1.71484375 4.75390625 C-2.44832031 5.35074219 -3.18179687 5.94757813 -3.9375 6.5625 C-6.92648955 8.91285524 -6.92648955 8.91285524 -9 12 C-9.66 12 -10.32 12 -11 12 C-11.33 12.99 -11.66 13.98 -12 15 C-12.66 15 -13.32 15 -14 15 C-14.15662109 15.81210938 -14.15662109 15.81210938 -14.31640625 16.640625 C-15.46520576 20.60562446 -17.59280688 24.10295936 -19.52734375 27.734375 C-22.54562843 34.4274413 -23.29892904 40.65850354 -23.31884766 47.89453125 C-23.32889328 48.7442601 -23.3389389 49.59398895 -23.34928894 50.46946716 C-23.37993574 53.25047185 -23.39710419 56.03138109 -23.4140625 58.8125 C-23.43278906 60.75163585 -23.45236357 62.69076368 -23.4727478 64.62988281 C-23.52391779 69.71294409 -23.56362425 74.79603174 -23.60089111 79.87921143 C-23.64102595 85.07448775 -23.69207492 90.26965579 -23.7421875 95.46484375 C-23.83876747 105.64315293 -23.92322929 115.82152347 -24 126 C-24.33 126 -24.66 126 -25 126 C-25.06960594 114.14289335 -25.12286515 102.28583557 -25.15543652 90.42856598 C-25.17107159 84.92235582 -25.19227058 79.41628578 -25.22631836 73.91015625 C-25.25898857 68.5933444 -25.27686925 63.27666708 -25.28463173 57.95976257 C-25.29016147 55.93444197 -25.30095969 53.90912847 -25.31719017 51.88386536 C-25.33906616 49.04025541 -25.34196266 46.1971966 -25.34057617 43.35351562 C-25.351362 42.52200989 -25.36214783 41.69050415 -25.3732605 40.83380127 C-25.31154804 29.08537604 -19.01853197 17.40036682 -11 9 C-7.48767284 5.73657791 -3.9928262 2.66188414 0 0 Z " fill="#869E97" transform="translate(305,132)"/>
<path d="M0 0 C0.33 0 0.66 0 1 0 C1.13963329 11.75336597 1.24594075 23.50653138 1.31087303 35.26056099 C1.34205318 40.71974317 1.38428045 46.17835373 1.45263672 51.63720703 C1.51830694 56.91518568 1.55380592 62.19261798 1.56926346 67.47097397 C1.58026485 69.47465478 1.60174602 71.47830906 1.63438034 73.4817543 C1.88515225 89.52961856 -0.23830253 101.42986301 -11 114 C-11.7425 114.99 -12.485 115.98 -13.25 117 C-16.85925772 121.28377473 -21.42172195 124.80736008 -26 128 C-26.66 128 -27.32 128 -28 128 C-28 127.34 -28 126.68 -28 126 C-26.29781633 124.50618709 -24.53677109 123.07902984 -22.75 121.6875 C-19.7187959 119.32588729 -17.17008358 117.21260447 -14.765625 114.20703125 C-14.18296875 113.47871094 -13.6003125 112.75039063 -13 112 C-12.34 112 -11.68 112 -11 112 C-11 111.34 -11 110.68 -11 110 C-10.34 110 -9.68 110 -9 110 C-8.67 108.35 -8.34 106.7 -8 105 C-7.34 105 -6.68 105 -6 105 C-5.8659375 104.44441406 -5.731875 103.88882813 -5.59375 103.31640625 C-4.9577728 100.83525835 -4.23971817 98.38966574 -3.5 95.9375 C-3.2421875 95.08027344 -2.984375 94.22304688 -2.71875 93.33984375 C-2.16968382 91.55239461 -1.59130771 89.77392313 -1 88 C-0.87973935 85.18645289 -0.81462521 82.39582985 -0.79467773 79.58129883 C-0.77982834 78.29317039 -0.77982834 78.29317039 -0.76467896 76.97901917 C-0.73307234 74.13838465 -0.70830979 71.2977334 -0.68359375 68.45703125 C-0.6630235 66.48833276 -0.64202701 64.51963868 -0.62062073 62.5509491 C-0.56540738 57.36751882 -0.51599482 52.18404873 -0.46777344 47.00054932 C-0.41755306 41.71191868 -0.36186979 36.42334591 -0.30664062 31.13476562 C-0.19906805 20.75655984 -0.09762104 10.37830383 0 0 Z " fill="#FDE189" transform="translate(618,642)"/>
<path d="M0 0 C0.33 0 0.66 0 1 0 C1.04898438 0.94101562 1.09796875 1.88203125 1.1484375 2.8515625 C1.22320312 4.09679687 1.29796875 5.34203125 1.375 6.625 C1.44460937 7.85476563 1.51421875 9.08453125 1.5859375 10.3515625 C1.8603015 13.92993584 1.8603015 13.92993584 2.9921875 16.91015625 C4.28794648 20.88281266 4.46574933 24.66327018 4.75 28.8125 C5.52743846 38.42885783 7.60294257 47.54287504 10.05566406 56.8605957 C10.31959961 57.87726318 10.58353516 58.89393066 10.85546875 59.94140625 C11.09934326 60.84576416 11.34321777 61.75012207 11.59448242 62.68188477 C12 65 12 65 11 68 C8.74638153 62.36595382 7.18316208 56.94190956 6 51 C5.7628125 49.86175781 5.525625 48.72351563 5.28125 47.55078125 C3.60514733 39.39654175 2.17877203 31.24006988 1 23 C0.79375 21.72125 0.5875 20.4425 0.375 19.125 C-0.40351078 12.81496522 -0.07439786 6.34861737 0 0 Z " fill="#9AAA96" transform="translate(103,470)"/>
<path d="M0 0 C0.99 0.33 1.98 0.66 3 1 C2.41992188 1.61746094 1.83984375 2.23492187 1.2421875 2.87109375 C-12.73755353 18.02734763 -21.14585734 35.50981166 -24 56 C-24.33 56 -24.66 56 -25 56 C-25.54527236 47.9572327 -23.65445745 41.55566158 -21 34 C-20.62617188 32.88753906 -20.25234375 31.77507812 -19.8671875 30.62890625 C-15.58065977 18.57836969 -8.14105716 9.71019516 0 0 Z " fill="#9DAB96" transform="translate(288,459)"/>
<path d="M0 0 C4.30352836 1.3040995 6.96145729 3.56437587 10.25 6.484375 C20.73883768 15.56845764 34.50306238 20.01592406 48 22 C48 22.66 48 23.32 48 24 C40.42356883 26.52547706 29.50278931 21.09182576 22.5625 17.625 C17.29661533 14.84101148 12.53108118 11.86017002 8 8 C7.25492188 7.37480469 6.50984375 6.74960937 5.7421875 6.10546875 C1.75958056 2.698744 1.75958056 2.698744 0 1 C0 0.67 0 0.34 0 0 Z " fill="#8EA297" transform="translate(145,592)"/>
<path d="M0 0 C0.33 0 0.66 0 1 0 C1 4.29 1 8.58 1 13 C0.34 13 -0.32 13 -1 13 C-0.97164062 14.27359375 -0.94328125 15.5471875 -0.9140625 16.859375 C-0.91610706 22.08119381 -1.56821876 27.09901207 -2.375 32.25 C-2.50132812 33.12140625 -2.62765625 33.9928125 -2.7578125 34.890625 C-3.41702998 39.21509169 -4.23237005 42.97596363 -6 47 C-6.73257317 49.43032486 -7.43974183 51.86841252 -8.125 54.3125 C-8.47820313 55.56675781 -8.83140625 56.82101562 -9.1953125 58.11328125 C-9.46085938 59.06589844 -9.72640625 60.01851562 -10 61 C-10.33 61 -10.66 61 -11 61 C-11.32254968 55.94672167 -10.57183223 52.38192777 -8.859375 47.6484375 C-7.09915468 42.22375852 -6.11940347 36.58529584 -5 31 C-4.84241211 30.24847656 -4.68482422 29.49695313 -4.52246094 28.72265625 C-3.22851831 22.46818789 -2.24573405 16.20114941 -1.375 9.875 C-1.2409375 8.91851562 -1.106875 7.96203125 -0.96875 6.9765625 C-0.64322612 4.65139193 -0.32034731 2.32588839 0 0 Z " fill="#E7D487" transform="translate(796,483)"/>
<path d="M0 0 C1.12148438 0.00483398 1.12148438 0.00483398 2.265625 0.00976562 C3.02617187 0.01814453 3.78671875 0.02652344 4.5703125 0.03515625 C5.3540625 0.03966797 6.1378125 0.04417969 6.9453125 0.04882812 C8.86201264 0.06051532 10.77867298 0.07844717 12.6953125 0.09765625 C9.87189784 1.66763566 7.60543498 2.40102983 4.39453125 2.6953125 C3.58177734 2.77458984 2.76902344 2.85386719 1.93164062 2.93554688 C1.09052734 3.00966797 0.24941406 3.08378906 -0.6171875 3.16015625 C-2.28006244 3.31649492 -3.94282556 3.47402811 -5.60546875 3.6328125 C-6.41056885 3.70781982 -7.21566895 3.78282715 -8.04516602 3.86010742 C-9.98785755 4.06434717 -11.92162218 4.35052489 -13.8515625 4.65234375 C-18.00997714 5.18860989 -22.05611045 5.20678779 -26.2421875 5.16015625 C-27.02142578 5.15564453 -27.80066406 5.15113281 -28.60351562 5.14648438 C-30.50394018 5.13482533 -32.40432456 5.11689502 -34.3046875 5.09765625 C-34.3046875 4.43765625 -34.3046875 3.77765625 -34.3046875 3.09765625 C-33.60907715 3.04230713 -32.9134668 2.98695801 -32.19677734 2.92993164 C-29.02419572 2.6759877 -25.85194567 2.41810804 -22.6796875 2.16015625 C-21.58527344 2.07314453 -20.49085938 1.98613281 -19.36328125 1.89648438 C-17.76806641 1.7659668 -17.76806641 1.7659668 -16.140625 1.6328125 C-15.16657715 1.55426025 -14.1925293 1.47570801 -13.18896484 1.39477539 C-11.18737452 1.18858482 -9.19259241 0.90821418 -7.20898438 0.5703125 C-4.73345519 0.16743552 -2.49837381 -0.01921826 0 0 Z " fill="#E4D184" transform="translate(507.3046875,793.90234375)"/>
<path d="M0 0 C3.00487802 3.61145277 4.89608055 7.58840475 6.875 11.8125 C7.22506104 12.55790039 7.57512207 13.30330078 7.93579102 14.07128906 C11.88987736 22.6768668 15.32995942 31.64777275 17 41 C15.515 40.505 15.515 40.505 14 40 C13.04598278 37.32037796 12.2704653 34.74451859 11.5625 32 C9.55000923 24.70472097 7.13312698 18.10688241 3.640625 11.3828125 C3.18171875 10.49335938 2.7228125 9.60390625 2.25 8.6875 C1.82203125 7.88699219 1.3940625 7.08648437 0.953125 6.26171875 C0 4 0 4 0 0 Z " fill="#EAD480" transform="translate(772,330)"/>
<path d="M0 0 C0.33 0 0.66 0 1 0 C1.43565673 5.99028009 0.20911106 9.70815154 -2.5 14.875 C-2.8623877 15.57753906 -3.22477539 16.28007813 -3.59814453 17.00390625 C-8.72837928 26.61171931 -16.00455482 33.8637019 -25 40 C-25.66 40 -26.32 40 -27 40 C-27 39.34 -27 38.68 -27 38 C-25.29781633 36.50618709 -23.53677109 35.07902984 -21.75 33.6875 C-18.7187959 31.32588729 -16.17008358 29.21260447 -13.765625 26.20703125 C-13.18296875 25.47871094 -12.6003125 24.75039063 -12 24 C-11.34 24 -10.68 24 -10 24 C-10 23.34 -10 22.68 -10 22 C-9.34 22 -8.68 22 -8 22 C-7.67 20.35 -7.34 18.7 -7 17 C-6.34 17 -5.68 17 -5 17 C-4.8659375 16.44441406 -4.731875 15.88882813 -4.59375 15.31640625 C-3.9577728 12.83525835 -3.23971817 10.38966574 -2.5 7.9375 C-2.2421875 7.08027344 -1.984375 6.22304688 -1.71875 5.33984375 C-1.16968382 3.55239461 -0.59130771 1.77392313 0 0 Z " fill="#EFD67D" transform="translate(617,730)"/>
<path d="M0 0 C0.495 0.99 0.495 0.99 1 2 C-8.86859754 13.93116616 -20.44271708 23.38109626 -35 29 C-35.99 29 -36.98 29 -38 29 C-38 28.34 -38 27.68 -38 27 C-36.68 27 -35.36 27 -34 27 C-34 26.34 -34 25.68 -34 25 C-32.906875 24.649375 -31.81375 24.29875 -30.6875 23.9375 C-25.86765618 22.15046343 -21.78166894 19.4549658 -17.515625 16.62109375 C-15.38558587 15.24847537 -13.29006142 14.07547277 -11 13 C-11 12.34 -11 11.68 -11 11 C-9.38161281 9.28641357 -7.70328319 7.6292274 -6 6 C-4.89324444 4.89842831 -3.78904707 3.79428007 -2.6875 2.6875 C-1.800625 1.800625 -0.91375 0.91375 0 0 Z " fill="#95A697" transform="translate(599,400)"/>
<path d="M0 0 C-3.51926926 1.99718531 -7.08346055 2.85376378 -11 3.8125 C-19.66542238 6.02503811 -27.68834963 9.24281219 -35.625 13.375 C-36.73875 13.91125 -37.8525 14.4475 -39 15 C-39.66 14.67 -40.32 14.34 -41 14 C-29.90238541 5.49969946 -14.19829866 -1.50334927 0 0 Z " fill="#F1D77C" transform="translate(360,467)"/>
<path d="M0 0 C16.01786555 0.42354933 32.00247943 7.73205663 46 15 C42.07080254 16.30973249 40.67487741 15.34412908 36.875 13.8125 C35.13089844 13.11447266 35.13089844 13.11447266 33.3515625 12.40234375 C30.63087114 11.2639659 27.93501132 10.09416592 25.25 8.875 C17.12028577 5.2011364 8.65858532 3.06575386 0 1 C0 0.67 0 0.34 0 0 Z " fill="#95A696" transform="translate(526,110)"/>
<path d="M0 0 C3 0 3 0 4.71875 1.6796875 C5.3065625 2.40414062 5.894375 3.12859375 6.5 3.875 C8.63040629 6.48194454 10.16002857 8.10668572 13 10 C13 10.66 13 11.32 13 12 C13.50144531 12.23847656 14.00289063 12.47695313 14.51953125 12.72265625 C17.98243845 14.50591712 21.33190515 16.46117915 24.6875 18.4375 C25.37650391 18.83259766 26.06550781 19.22769531 26.77539062 19.63476562 C31.88471301 22.65413903 31.88471301 22.65413903 33 26 C32.41992188 25.70867188 31.83984375 25.41734375 31.2421875 25.1171875 C29.85576687 24.42639255 28.46578849 23.74262684 27.0703125 23.0703125 C22.80507622 20.99764748 18.7998867 18.84991503 15 16 C15 15.34 15 14.68 15 14 C14.319375 13.814375 13.63875 13.62875 12.9375 13.4375 C7.19237536 10.62605603 2.91254851 5.65377064 0 0 Z " fill="#F0D67D" transform="translate(299,751)"/>
<path d="M0 0 C1.5631897 0.00785522 1.5631897 0.00785522 3.15795898 0.01586914 C4.28266602 0.0190918 5.40737305 0.02231445 6.56616211 0.02563477 C7.75016602 0.03401367 8.93416992 0.04239258 10.15405273 0.05102539 C11.34192383 0.05553711 12.52979492 0.06004883 13.75366211 0.06469727 C16.69967499 0.07652864 19.64558954 0.09301252 22.59155273 0.11352539 C22.59155273 0.44352539 22.59155273 0.77352539 22.59155273 1.11352539 C-5.35358917 4.48878796 -5.35358917 4.48878796 -18.40844727 5.11352539 C-18.07844727 4.45352539 -17.74844727 3.79352539 -17.40844727 3.11352539 C-15.09040064 2.67019897 -12.75170636 2.332122 -10.40844727 2.05102539 C-6.70649536 1.59947682 -3.39664148 0.16010525 0 0 Z " fill="#7E9998" transform="translate(395.408447265625,102.886474609375)"/>
<path d="M0 0 C0.66 0.33 1.32 0.66 2 1 C-3.01829651 6.9219126 -8.16430096 12.86553567 -14 18 C-14.66 18 -15.32 18 -16 18 C-16 18.66 -16 19.32 -16 20 C-16.66 20 -17.32 20 -18 20 C-15.22922559 13.85491615 -10.00630628 8.45005002 -5 4 C-4.34 4 -3.68 4 -3 4 C-3 3.34 -3 2.68 -3 2 C-2.01 1.34 -1.02 0.68 0 0 Z " fill="#F9D660" transform="translate(317,482)"/>
<path d="M0 0 C0.99 0.33 1.98 0.66 3 1 C-15.12160811 20.42897864 -15.12160811 20.42897864 -25 22 C-23.75314694 18.25944081 -22.68656164 17.99107295 -19.3125 16.125 C-16.14350666 14.31155603 -13.2513053 12.52812522 -10.5 10.125 C-8 8 -8 8 -6 8 C-5.67 7.01 -5.34 6.02 -5 5 C-4.34 5 -3.68 5 -3 5 C-3 4.34 -3 3.68 -3 3 C-2.34 3 -1.68 3 -1 3 C-0.67 2.01 -0.34 1.02 0 0 Z " fill="#F0D67B" transform="translate(757,588)"/>
<path d="M0 0 C-3.21924212 2.14616141 -5.42925954 2.65765409 -9.1875 3.4375 C-15.52835144 4.84424519 -21.1411907 6.7608203 -27.08203125 9.3359375 C-28.16871094 9.80257813 -29.25539062 10.26921875 -30.375 10.75 C-31.39335937 11.19859375 -32.41171875 11.6471875 -33.4609375 12.109375 C-34.29882812 12.40328125 -35.13671875 12.6971875 -36 13 C-36.66 12.67 -37.32 12.34 -38 12 C-28.3417742 4.17819742 -12.37345219 -0.98987618 0 0 Z " fill="#97A797" transform="translate(201,281)"/>
<path d="M0 0 C0.66 0.33 1.32 0.66 2 1 C2.48508338 2.79540009 2.88750249 4.61339394 3.25 6.4375 C4.52405815 11.89590142 6.47666519 15.92685813 9.5 20.60546875 C11.73608202 24.1750476 13.74020552 27.96865766 15 32 C14.67 32.66 14.34 33.32 14 34 C10.78662758 29.90973089 8.71080913 25.55928866 6.5 20.875 C6.10941406 20.070625 5.71882813 19.26625 5.31640625 18.4375 C2.62211485 12.75862317 0.64137118 7.06502743 -1 1 C-0.67 0.67 -0.34 0.34 0 0 Z " fill="#9AA996" transform="translate(115,538)"/>
<path d="M0 0 C-3.49659154 1.82619013 -7.10642171 3.3049496 -10.75 4.8125 C-16.19796735 7.09868166 -21.0722255 9.74580929 -26 13 C-26.99 13.33 -27.98 13.66 -29 14 C-29 13.01 -29 12.02 -29 11 C-28.01 11 -27.02 11 -26 11 C-26 10.34 -26 9.68 -26 9 C-24.00060168 7.99879754 -22.00045914 6.9990812 -20 6 C-18.94941406 5.47019531 -17.89882813 4.94039063 -16.81640625 4.39453125 C-15.74261719 3.87246094 -14.66882813 3.35039062 -13.5625 2.8125 C-12.49128906 2.28269531 -11.42007812 1.75289063 -10.31640625 1.20703125 C-6.66799566 -0.1208355 -3.8520568 -0.21914356 0 0 Z " fill="#92A597" transform="translate(326,440)"/>
<path d="M0 0 C7.38230708 7.177243 13.54741429 15.21767383 17 25 C16.67 25.99 16.34 26.98 16 28 C15.64808594 27.33355469 15.29617188 26.66710937 14.93359375 25.98046875 C9.17369229 14.42101987 9.17369229 14.42101987 1.29296875 4.375 C0 3 0 3 0 0 Z " fill="#95A696" transform="translate(596,144)"/>
<path d="M0 0 C0 3 0 3 -1.87109375 4.91015625 C-2.71800781 5.62042969 -3.56492188 6.33070313 -4.4375 7.0625 C-9.75381194 11.6735095 -14.40317704 16.68145363 -19 22 C-19.66 21.67 -20.32 21.34 -21 21 C-19.7260411 18.96166576 -18.38938077 16.96147874 -17 15 C-16.34 15 -15.68 15 -15 15 C-14.77183594 14.43539063 -14.54367188 13.87078125 -14.30859375 13.2890625 C-12.6444723 10.37809185 -10.57851735 8.58436619 -8.0625 6.375 C-7.18722656 5.59898437 -6.31195313 4.82296875 -5.41015625 4.0234375 C-3 2 -3 2 0 0 Z " fill="#96A797" transform="translate(155,298)"/>
<path d="M0 0 C0.99 0.495 0.99 0.495 2 1 C2.42110748 2.75461448 2.83495107 4.51114122 3.22265625 6.2734375 C4.44745249 10.56945646 6.2551277 14.63511953 8.05566406 18.71923828 C10.06906824 23.4774114 10.06906824 23.4774114 9.67578125 26.453125 C9.45277344 26.96359375 9.22976563 27.4740625 9 28 C8.74605469 27.40832031 8.49210937 26.81664062 8.23046875 26.20703125 C7.71419922 25.02173828 7.71419922 25.02173828 7.1875 23.8125 C6.85105469 23.03519531 6.51460938 22.25789062 6.16796875 21.45703125 C5.04995662 18.95326088 5.04995662 18.95326088 3.4375 16.65625 C1.63659132 13.32848396 1.26755677 10.43296725 0.8125 6.6875 C0.57466797 4.80611328 0.57466797 4.80611328 0.33203125 2.88671875 C0.22246094 1.93410156 0.11289062 0.98148438 0 0 Z " fill="#EFD67D" transform="translate(284,716)"/>
<path d="M0 0 C1.27677691 4.26044643 0.55844505 7.89616359 -0.25 12.1875 C-0.38768799 12.94474365 -0.52537598 13.7019873 -0.66723633 14.48217773 C-1.68164617 19.84537348 -3.04984321 24.89244651 -5 30 C-5.33 30 -5.66 30 -6 30 C-6.32152351 24.96279835 -5.58645 21.40319142 -3.8671875 16.6875 C-2.11220136 11.24862403 -1.12268168 5.59748384 0 0 Z " fill="#FBDC74" transform="translate(791,514)"/>
<path d="M0 0 C8.4233777 0.2904613 15.57002434 3.15233403 23 7 C23.33 7.66 23.66 8.32 24 9 C20.08878502 8.31063929 16.44491404 7.21749819 12.6875 5.9375 C11.61886719 5.57527344 10.55023437 5.21304687 9.44921875 4.83984375 C8.23685547 4.42412109 8.23685547 4.42412109 7 4 C7 3.34 7 2.68 7 2 C4.69 1.67 2.38 1.34 0 1 C0 0.67 0 0.34 0 0 Z " fill="#EED67E" transform="translate(712,285)"/>
<path d="M0 0 C9.57 0 19.14 0 29 0 C29 0.99 29 1.98 29 3 C26.03 3 23.06 3 20 3 C20 2.34 20 1.68 20 1 C19.05898438 1.08378906 18.11796875 1.16757813 17.1484375 1.25390625 C15.28058594 1.40666016 15.28058594 1.40666016 13.375 1.5625 C12.14523437 1.66691406 10.91546875 1.77132812 9.6484375 1.87890625 C6.24372538 1.99191061 3.32441602 1.69045563 0 1 C0 0.67 0 0.34 0 0 Z " fill="#829B97" transform="translate(466,103)"/>
<path d="M0 0 C-8.18224358 5.45482905 -19.29956482 7.23011981 -29 7 C-25.6140954 4.74273027 -22.604219 4.19275302 -18.6875 3.5 C-12.43875855 2.35595181 -6.35341981 -0.37373058 0 0 Z " fill="#99A996" transform="translate(561,429)"/>
<path d="M0 0 C6.49813839 -0.14411194 12.58981424 0.33496986 19 1.375 C20.28583984 1.56449219 20.28583984 1.56449219 21.59765625 1.7578125 C22.81775391 1.95117188 22.81775391 1.95117188 24.0625 2.1484375 C24.79597656 2.26364746 25.52945313 2.37885742 26.28515625 2.49755859 C27.13400391 2.74626709 27.13400391 2.74626709 28 3 C28.33 3.66 28.66 4.32 29 5 C22.84765625 5.09765625 22.84765625 5.09765625 21 5 C20.67 4.67 20.34 4.34 20 4 C17.58235747 3.6226119 15.17806712 3.29264839 12.75 3 C8.4669717 2.47184237 4.22114857 1.91621829 0 1 C0 0.67 0 0.34 0 0 Z " fill="#8DA297" transform="translate(497,105)"/>
<path d="M0 0 C0.66 0 1.32 0 2 0 C1.68006739 7.0385175 -1.2998454 13.07282027 -5 19 C-7.19921875 20.859375 -7.19921875 20.859375 -9 22 C-7.57988184 16.74556281 -5.05083264 12.35656971 -2.33984375 7.68359375 C-1.03568916 5.07148238 -0.42099683 2.87421292 0 0 Z " fill="#8EA397" transform="translate(609,378)"/>
<path d="M0 0 C0.33 0 0.66 0 1 0 C0.16889429 16.60024301 0.16889429 16.60024301 -2 24 C-2.66 24.33 -3.32 24.66 -4 25 C-3.49451662 16.45907394 -1.93265709 8.32622708 0 0 Z " fill="#93A597" transform="translate(615,353)"/>
<path d="M0 0 C6.39706241 5.99724601 12.57071618 12.85545094 16 21 C15.01 21 14.02 21 13 21 C11 18 11 18 11 15 C10.34 15 9.68 15 9 15 C7.4921875 13.1015625 7.4921875 13.1015625 5.875 10.625 C5.33617187 9.81289063 4.79734375 9.00078125 4.2421875 8.1640625 C3 6 3 6 3 4 C2.01 3.67 1.02 3.34 0 3 C0 2.01 0 1.02 0 0 Z " fill="#F3D87B" transform="translate(756,309)"/>
<path d="M0 0 C-3.70967803 1.91439807 -7.51506748 3.45299845 -11.3984375 4.9765625 C-13.03560166 5.62061207 -14.66690871 6.27996509 -16.2890625 6.9609375 C-20.00240744 8.47687233 -22.17420247 9.23874942 -26 8 C-22.98818557 6.64560655 -19.96432275 5.32047094 -16.9375 4 C-16.08994141 3.6184375 -15.24238281 3.236875 -14.36914062 2.84375 C-9.30433638 0.65356438 -5.52171068 -0.47949726 0 0 Z " fill="#8FA397" transform="translate(345,115)"/>
<path d="M0 0 C4.20082269 1.27297657 6.81862993 3.40779828 10.01953125 6.26953125 C13.54349251 9.34865322 17.28699034 12.15420122 21 15 C13.18898918 15 5.25864469 6.20891755 0 1 C0 0.67 0 0.34 0 0 Z " fill="#99A895" transform="translate(145,592)"/>
<path d="M0 0 C3.78471745 1.36087336 6.8006692 3.09321666 10.0625 5.4375 C10.89910156 6.03433594 11.73570312 6.63117188 12.59765625 7.24609375 C13.39042969 7.82488281 14.18320312 8.40367187 15 9 C15.76183594 9.52722656 16.52367187 10.05445313 17.30859375 10.59765625 C17.86675781 11.06042969 18.42492187 11.52320313 19 12 C19 12.66 19 13.32 19 14 C19.99 14.33 20.98 14.66 22 15 C21.01 15.33 20.02 15.66 19 16 C18.46632813 15.50371094 17.93265625 15.00742188 17.3828125 14.49609375 C12.45818638 10.00599346 7.41281406 6.05057134 1.87109375 2.34765625 C1.25363281 1.90292969 0.63617187 1.45820312 0 1 C0 0.67 0 0.34 0 0 Z " fill="#96A796" transform="translate(572,126)"/>
<path d="M0 0 C-16.41795149 7.48688991 -16.41795149 7.48688991 -21 6 C-20.34 6 -19.68 6 -19 6 C-19 5.34 -19 4.68 -19 4 C-18.12988281 3.83564453 -18.12988281 3.83564453 -17.2421875 3.66796875 C-13.38808944 2.88570132 -10.21949489 2.11181815 -6.6875 0.3125 C-3.66515879 -1.1635271 -3.05186339 -0.96956854 0 0 Z " fill="#EFD67C" transform="translate(731,611)"/>
<path d="M0 0 C1 3 1 3 -0.36328125 6.21484375 C-1.00295653 7.46094715 -1.65314888 8.7016949 -2.3125 9.9375 C-2.79493164 10.86852539 -2.79493164 10.86852539 -3.28710938 11.81835938 C-4.18471447 13.54905997 -5.09205426 15.27470177 -6 17 C-6.67092309 18.33119661 -7.34004183 19.66333346 -8 21 C-8.66 20.67 -9.32 20.34 -10 20 C-7.21020127 12.87710964 -4.27652684 6.35369701 0 0 Z " fill="#EDD682" transform="translate(298,502)"/>
<path d="M0 0 C6.35450323 1.24702151 12.68327435 2.57364259 19 4 C19 4.33 19 4.66 19 5 C12.90218999 5.22084624 7.78357065 5.01167675 2 3 C2 2.34 2 1.68 2 1 C1.34 0.67 0.68 0.34 0 0 Z " fill="#F7D973" transform="translate(356,785)"/>
<path d="M0 0 C0.33 0 0.66 0 1 0 C1.37851209 5.93002267 0.10575375 10.47239641 -2 16 C-3.18056334 12.4998791 -2.82576105 9.90750019 -2.125 6.3125 C-1.85042969 4.85263672 -1.85042969 4.85263672 -1.5703125 3.36328125 C-1 1 -1 1 0 0 Z " fill="#EED780" transform="translate(288,524)"/>
<path d="M0 0 C0.66 0.33 1.32 0.66 2 1 C-0.58622965 3.69398922 -3.29852336 6.24053318 -6.0625 8.75 C-7.06990234 9.67039062 -7.06990234 9.67039062 -8.09765625 10.609375 C-10 12 -10 12 -13 12 C-11.71451591 10.66070495 -10.42141845 9.32871357 -9.125 8 C-8.04605469 6.88625 -8.04605469 6.88625 -6.9453125 5.75 C-5 4 -5 4 -3 4 C-3 3.34 -3 2.68 -3 2 C-2.01 1.34 -1.02 0.68 0 0 Z " fill="#EDD683" transform="translate(317,482)"/>
<path d="M0 0 C1.98 0.99 1.98 0.99 4 2 C4 2.66 4 3.32 4 4 C4.66 4 5.32 4 6 4 C7.2890625 5.53125 7.2890625 5.53125 8.625 7.5 C9.07101563 8.1496875 9.51703125 8.799375 9.9765625 9.46875 C10.48316406 10.22671875 10.48316406 10.22671875 11 11 C10.67 11.66 10.34 12.32 10 13 C8.62437146 11.71034824 7.29233607 10.37310707 6 9 C6 8.34 6 7.68 6 7 C5.34 7 4.68 7 4 7 C2.02 3.535 2.02 3.535 0 0 Z " fill="#98A896" transform="translate(134,579)"/>
<path d="M0 0 C8.44646925 6.15034169 8.44646925 6.15034169 12 10 C9.03824877 9.38722388 7.61941217 8.74627478 5 7 C5 6.34 5 5.68 5 5 C2.525 4.01 2.525 4.01 0 3 C0 2.01 0 1.02 0 0 Z " fill="#F2D87C" transform="translate(742,297)"/>
<path d="M0 0 C0 3.39425739 -0.73103868 4.70768136 -2.375 7.625 C-2.81585937 8.42164063 -3.25671875 9.21828125 -3.7109375 10.0390625 C-5 12 -5 12 -7 13 C-6.67 11.35 -6.34 9.7 -6 8 C-5.34 8 -4.68 8 -4 8 C-3.896875 7.236875 -3.79375 6.47375 -3.6875 5.6875 C-2.95635961 2.82940576 -2.23048087 1.84257115 0 0 Z " fill="#ECD57F" transform="translate(776,563)"/>
<path d="M0 0 C0.65234375 1.734375 0.65234375 1.734375 1 4 C0.00390625 6.140625 0.00390625 6.140625 -1.4375 8.25 C-1.91058594 8.95640625 -2.38367188 9.6628125 -2.87109375 10.390625 C-3.24363281 10.92171875 -3.61617188 11.4528125 -4 12 C-4.33 11.34 -4.66 10.68 -5 10 C-4.2578125 7.87109375 -4.2578125 7.87109375 -3.125 5.4375 C-2.75632812 4.63183594 -2.38765625 3.82617188 -2.0078125 2.99609375 C-1 1 -1 1 0 0 Z " fill="#93A596" transform="translate(124,335)"/>
<path d="M0 0 C1 3 1 3 0.22265625 5.04296875 C-0.16019531 5.75066406 -0.54304688 6.45835937 -0.9375 7.1875 C-1.31777344 7.90292969 -1.69804687 8.61835938 -2.08984375 9.35546875 C-2.54037109 10.16951172 -2.54037109 10.16951172 -3 11 C-3.99 11 -4.98 11 -6 11 C-4.18690997 7.22272911 -2.0926741 3.62730178 0 0 Z " fill="#899F97" transform="translate(278,471)"/>
<path d="M0 0 C0.91007812 0.00902344 1.82015625 0.01804687 2.7578125 0.02734375 C3.45648438 0.03894531 4.15515625 0.05054688 4.875 0.0625 C0.84207255 2.2969598 -2.57467434 2.60746743 -7.125 3.0625 C-7.125 2.4025 -7.125 1.7425 -7.125 1.0625 C-4.60024538 -0.19987731 -2.81299534 -0.03606404 0 0 Z " fill="#F6D76F" transform="translate(355.125,466.9375)"/>
<path d="M0 0 C0.33 0 0.66 0 1 0 C0.14285714 8.57142857 0.14285714 8.57142857 -2 12 C-3.47118907 8.17490842 -2.45442741 5.71687005 -1 2 C-0.67 1.34 -0.34 0.68 0 0 Z " fill="#95A697" transform="translate(118,347)"/>
<path d="M0 0 C0.66 0.33 1.32 0.66 2 1 C2.6328125 3.06640625 2.6328125 3.06640625 3.125 5.5625 C3.29257813 6.38878906 3.46015625 7.21507812 3.6328125 8.06640625 C3.75398438 8.70449219 3.87515625 9.34257813 4 10 C0.13892543 7.42595029 0.05680308 5.38979741 -1 1 C-0.67 0.67 -0.34 0.34 0 0 Z " fill="#8AA097" transform="translate(115,538)"/>
<path d="M0 0 C0.66 0 1.32 0 2 0 C1.34 1.65 0.68 3.3 0 5 C-0.66 5 -1.32 5 -2 5 C-2.66 6.65 -3.32 8.3 -4 10 C-4.33 9.01 -4.66 8.02 -5 7 C-4.34 6.01 -3.68 5.02 -3 4 C-2.34 4 -1.68 4 -1 4 C-0.67 2.68 -0.34 1.36 0 0 Z " fill="#EDD680" transform="translate(767,576)"/>
<path d="M0 0 C1 2 1 2 0.44140625 4.1640625 C0.15136719 4.97617187 -0.13867188 5.78828125 -0.4375 6.625 C-0.72496094 7.44226563 -1.01242187 8.25953125 -1.30859375 9.1015625 C-1.53675781 9.72804688 -1.76492188 10.35453125 -2 11 C-2.33 11 -2.66 11 -3 11 C-3.36923077 4.6 -3.36923077 4.6 -1.5 1.5625 C-1.005 1.046875 -0.51 0.53125 0 0 Z " fill="#E4D183" transform="translate(788,533)"/>
<path d="M0 0 C3.31562557 0.55260426 6.15062207 1.16825705 9 3 C9.33 3.99 9.66 4.98 10 6 C6.66666667 4.33333333 3.33333333 2.66666667 0 1 C0 0.67 0 0.34 0 0 Z " fill="#ECD581" transform="translate(322,771)"/>
<path d="M0 0 C0.99 0.495 0.99 0.495 2 1 C3.1577506 4.47325181 3.06866652 7.36067448 3 11 C0.43383368 7.15075052 0.44902324 4.5650696 0 0 Z " fill="#F7DA76" transform="translate(782,353)"/>
<path d="M0 0 C3.3 0.33 6.6 0.66 10 1 C10 1.66 10 2.32 10 3 C5.82412255 4.39195915 3.86525224 2.82323219 0 1 C0 0.67 0 0.34 0 0 Z " fill="#769498" transform="translate(183,613)"/>
<path d="M0 0 C0.33 0.99 0.66 1.98 1 3 C-0.8125 6.1875 -0.8125 6.1875 -3 9 C-3.66 9 -4.32 9 -5 9 C-3.50163895 5.88801935 -1.80066242 2.9465385 0 0 Z " fill="#97A897" transform="translate(133,320)"/>
<path d="M0 0 C2.93200474 2.85276137 5.64315404 5.65079784 8 9 C6.0625 8.1875 6.0625 8.1875 4 7 C3.67 6.01 3.34 5.02 3 4 C2.01 3.67 1.02 3.34 0 3 C0 2.01 0 1.02 0 0 Z " fill="#E6D385" transform="translate(756,309)"/>
<path d="M0 0 C-5.2734375 3.22265625 -5.2734375 3.22265625 -7 4 C-7.66 3.67 -8.32 3.34 -9 3 C-5.83583464 -0.30799106 -4.50236011 -1.35070803 0 0 Z " fill="#E6D282" transform="translate(586,774)"/>
</svg>
